<svg width="68" height="40" viewBox="0 0 68 40" fill="none" xmlns="http://www.w3.org/2000/svg">
<path d="M0 39.898V5.02744H5.05251L24.3675 30.8632L21.8167 31.3777V5.02744H28.2386V39.898H23.1391L4.10824 13.8737L6.46892 13.3592V39.898H0Z" fill="black"/>
<path d="M32.4744 40V5.1317H47.35C49.648 5.1317 51.6305 5.52866 53.2998 6.3248C54.969 7.12094 56.2512 8.25195 57.1484 9.71783C58.0457 11.1859 58.4955 12.9312 58.4955 14.9604C58.4955 16.5837 58.0614 18.0895 57.1977 19.4778C56.3317 20.866 54.9534 21.9993 53.0648 22.8708V19.9213C54.7967 20.5777 56.1661 21.3894 57.1731 22.3563C58.18 23.3232 58.8893 24.401 59.2988 25.5852C59.7083 26.7717 59.9119 28.0202 59.9119 29.3286C59.9119 32.6684 58.802 35.2808 56.5823 37.1681C54.3626 39.0553 51.2859 40 47.35 40H32.4744ZM38.9455 18.6572H47.6811C49.0036 18.6572 50.0575 18.2758 50.8451 17.5107C51.6327 16.7456 52.0266 15.7565 52.0266 14.539C52.0266 13.3215 51.6327 12.3546 50.8451 11.6383C50.0575 10.9198 49.0036 10.5628 47.6811 10.5628H38.9455V18.6572ZM38.9455 34.3827H48.0123C49.6816 34.3827 51.0107 33.9236 52.002 33.0011C52.9932 32.0808 53.49 30.8566 53.49 29.3264C53.49 27.7984 52.9932 26.5654 52.002 25.6296C51.0107 24.6937 49.6793 24.2258 48.0123 24.2258H38.9455V34.3827Z" fill="black"/>
<path d="M66.9649 7.82173H62.1562V22.19H66.9649V7.82173Z" fill="#009FB7"/>
<path d="M59.6077 4.72584L67.0589 0V5.20486L59.6077 9.70893V4.72584Z" fill="#009FB7"/>
</svg>
