<svg width="47" height="66" viewBox="0 0 47 66" fill="none" xmlns="http://www.w3.org/2000/svg">
<path d="M0.629688 65.7002V56.4302C6.74969 51.3902 11.8497 47.0402 15.9297 43.3802C20.0697 39.6602 23.3697 36.3902 25.8297 33.5702C28.2897 30.7502 30.0297 28.1702 31.0497 25.8302C32.1297 23.4302 32.6697 21.0902 32.6697 18.8102C32.6697 15.8102 31.8297 13.4702 30.1497 11.7902C28.4697 10.1102 26.1297 9.27019 23.1297 9.27019C20.0097 9.27019 17.4597 10.2002 15.4797 12.0602C13.4997 13.8602 12.2997 16.4102 11.8797 19.7102H-0.000312328C0.659688 13.6502 3.08969 8.85019 7.28969 5.31019C11.4897 1.77019 16.9497 0.000193596 23.6697 0.000193596C30.3297 0.000193596 35.5497 1.74019 39.3297 5.22019C43.1697 8.64019 45.0897 13.4102 45.0897 19.5302C45.0897 22.5902 44.5497 25.5602 43.4697 28.4402C42.4497 31.2602 40.7097 34.2302 38.2497 37.3502C35.8497 40.4102 32.6097 43.8002 28.5297 47.5202C24.5097 51.1802 19.4697 55.3502 13.4097 60.0302L10.6197 56.4302H46.2597V65.7002H0.629688Z" fill="#00C2E0"/>
</svg>
