<svg width="47" height="67" viewBox="0 0 47 67" fill="none" xmlns="http://www.w3.org/2000/svg">
<path d="M24.3003 66.6002C19.8603 66.6002 15.8703 65.7902 12.3303 64.1702C8.85031 62.5502 6.00031 60.1502 3.78031 56.9702C1.62031 53.7902 0.360313 49.9502 0.000312563 45.4502H11.7003C12.2403 49.4102 13.5603 52.3802 15.6603 54.3602C17.7603 56.3402 20.5503 57.3302 24.0303 57.3302C27.1503 57.3302 29.6703 56.4602 31.5903 54.7202C33.5703 52.9802 34.5603 50.4902 34.5603 47.2502C34.5603 44.0102 33.6003 41.4002 31.6803 39.4202C29.8203 37.4402 26.8803 36.4502 22.8603 36.4502H16.2903V27.3602H22.5903C26.1303 27.3602 28.7403 26.5202 30.4203 24.8402C32.1603 23.1002 33.0303 20.8802 33.0303 18.1802C33.0303 15.4802 32.2503 13.3202 30.6903 11.7002C29.1903 10.0802 26.8803 9.27019 23.7603 9.27019C20.8803 9.27019 18.3903 10.1402 16.2903 11.8802C14.2503 13.5602 13.0203 16.0802 12.6003 19.4402H0.720313C1.20031 15.4202 2.43031 11.9702 4.41031 9.09019C6.45031 6.21019 9.15031 3.99019 12.5103 2.43019C15.8703 0.810194 19.7403 0.000193596 24.1203 0.000193596C28.4403 0.000193596 32.1903 0.720193 35.3703 2.16019C38.5503 3.54019 41.0103 5.52019 42.7503 8.10019C44.5503 10.6202 45.4503 13.6502 45.4503 17.1902C45.4503 20.2502 44.7603 22.9202 43.3803 25.2002C42.0003 27.4802 40.2003 29.2802 37.9803 30.6002C35.8203 31.8602 33.5403 32.4902 31.1403 32.4902L30.8703 30.6002C34.2303 30.6002 37.1103 31.3802 39.5103 32.9402C41.9103 34.4402 43.7403 36.4802 45.0003 39.0602C46.3203 41.6402 46.9803 44.5502 46.9803 47.7902C46.9803 51.5702 45.9903 54.9002 44.0103 57.7802C42.0903 60.6002 39.4203 62.7902 36.0003 64.3502C32.5803 65.8502 28.6803 66.6002 24.3003 66.6002Z" fill="#00C2E0"/>
</svg>
