<svg width="50" height="50" viewBox="0 0 50 50" fill="none" xmlns="http://www.w3.org/2000/svg">
<ellipse cx="25" cy="25.0005" rx="14.9746" ry="14.9746" fill="#262626"/>
<path d="M15.9961 38.7047C15.9961 33.6098 20.1264 29.4795 25.2213 29.4795C30.3163 29.4795 34.4466 33.6098 34.4466 38.7047" stroke="white" stroke-width="1.5" stroke-linecap="round" stroke-linejoin="round"/>
<path d="M30.5117 20.8955C30.5117 23.8176 28.1428 26.1865 25.2207 26.1865C22.2985 26.1865 19.9297 23.8176 19.9297 20.8955C19.9297 17.9734 22.2985 15.6045 25.2207 15.6045C28.1428 15.6045 30.5117 17.9734 30.5117 20.8955Z" stroke="white" stroke-width="1.5" stroke-linecap="round" stroke-linejoin="round"/>
<path d="M43.0571 25.0002C43.0571 21.5191 42.0721 18.2681 40.3655 15.5107M6.94336 25.0002C6.94336 27.7992 7.58019 30.4494 8.71685 32.8139M15.52 40.3712C18.2754 42.0743 21.523 43.0571 25.0002 43.0571C27.7301 43.0571 30.3185 42.4513 32.6383 41.3669C35.8551 39.863 38.5555 37.4388 40.4005 34.433M15.6754 9.53433C18.3972 7.88974 21.5882 6.94336 25.0002 6.94336C28.3481 6.94336 31.4832 7.85448 34.1711 9.4423" stroke="#262626" stroke-width="1.5" stroke-linecap="round" stroke-linejoin="round"/>
</svg>
