<svg width="50" height="50" viewBox="0 0 50 50" fill="none" xmlns="http://www.w3.org/2000/svg">
<path d="M41.0586 13.6417C40.9738 36.1597 26.419 42.7574 25.0001 42.7574C23.5813 42.7574 9.0262 36.1601 8.94141 13.6417C8.94141 13.5053 9.00652 13.3767 9.11554 13.2983C15.8071 8.64535 24.2744 6.62549 25 6.62549C25.7257 6.62549 34.193 8.64527 40.8845 13.2983C40.9935 13.3767 41.0586 13.5053 41.0586 13.6417Z" stroke="#262626" stroke-width="1.5" stroke-linecap="round" stroke-linejoin="round"/>
<path d="M37.6871 15.9617C37.62 33.7523 26.1209 38.9649 24.9999 38.9649C23.879 38.9649 12.3795 33.7526 12.3125 15.9617C12.3125 15.8539 12.3639 15.7523 12.4501 15.6904C17.7368 12.0143 24.4265 10.4185 24.9998 10.4185C25.5731 10.4185 32.2628 12.0142 37.5495 15.6904C37.6357 15.7523 37.6871 15.8539 37.6871 15.9617Z" fill="#262626"/>
<path d="M18.5107 25.1177L24.0946 29.5848L32.61 18.6963" stroke="white" stroke-width="1.5"/>
</svg>
