<svg width="60" height="60" viewBox="0 0 60 60" fill="none" xmlns="http://www.w3.org/2000/svg">
<path d="M29.25 57C29.25 52.6436 32.7818 49.1118 37.1382 49.1118H41.3826C42.6823 49.1118 43.7366 48.0583 43.7366 46.7585C43.7365 45.4588 42.6823 44.4053 41.3826 44.4053H20.9297C18.7159 44.4052 16.9212 42.6105 16.9211 40.3967C16.9211 38.1829 18.7159 36.3883 20.9297 36.3882H49.2415C50.6268 36.3881 51.7498 35.2649 51.75 33.8796C51.75 32.4942 50.6269 31.3704 49.2415 31.3704H10.6033C8.47515 31.3703 6.75 29.6452 6.75 27.5171C6.75008 25.389 8.4752 23.6639 10.6033 23.6638H43.8486C45.1483 23.6638 46.2018 22.6102 46.2019 21.3105C46.2019 20.0108 45.1484 18.9566 43.8486 18.9565H20.9297C18.7159 18.9565 16.9211 17.1618 16.9211 14.948C16.9213 12.7343 18.716 10.9395 20.9297 10.9395H24.7603C28.2612 10.9395 31.0994 8.1013 31.0994 4.60034V3C31.0994 2.58579 31.4352 2.25 31.8494 2.25C32.2636 2.25003 32.5994 2.5858 32.5994 3V4.60034C32.5994 8.92973 29.0896 12.4395 24.7603 12.4395H20.9297C19.5444 12.4395 18.4213 13.5627 18.4211 14.948C18.4211 16.3334 19.5443 17.4565 20.9297 17.4565H43.8486C45.9768 17.4566 47.7019 19.1824 47.7019 21.3105C47.7018 23.4386 45.9768 25.1638 43.8486 25.1638H10.6033C9.30363 25.1639 8.25008 26.2174 8.25 27.5171C8.25 28.8168 9.30358 29.8703 10.6033 29.8704H49.2415C51.4553 29.8704 53.25 31.6658 53.25 33.8796C53.2498 36.0934 51.4552 37.8881 49.2415 37.8882H20.9297C19.5443 37.8883 18.4211 39.0113 18.4211 40.3967C18.4212 41.7821 19.5443 42.9052 20.9297 42.9053H41.3826C43.5107 42.9053 45.2365 44.6304 45.2366 46.7585C45.2366 48.8867 43.5108 50.6118 41.3826 50.6118H37.1382C33.6102 50.6118 30.75 53.472 30.75 57C30.75 57.4142 30.4142 57.75 30 57.75C29.5858 57.75 29.25 57.4142 29.25 57Z" fill="#008498"/>
<path d="M39 5.625C39 6.66053 38.1605 7.5 37.125 7.5C36.0895 7.5 35.25 6.66053 35.25 5.625C35.25 4.58947 36.0895 3.75 37.125 3.75C38.1605 3.75 39 4.58947 39 5.625Z" fill="#008498"/>
<path d="M38.25 10.875C38.25 11.9105 37.4105 12.75 36.375 12.75C35.3395 12.75 34.5 11.9105 34.5 10.875C34.5 9.83947 35.3395 9 36.375 9C37.4105 9 38.25 9.83947 38.25 10.875Z" fill="#008498"/>
<path d="M45.75 12.75C45.75 14.4069 44.4069 15.75 42.75 15.75C41.0931 15.75 39.75 14.4069 39.75 12.75C39.75 11.0931 41.0931 9.75 42.75 9.75C44.4069 9.75 45.75 11.0931 45.75 12.75Z" fill="#008498"/>
<path d="M43.5 6.75C43.5 7.57843 42.8284 8.25 42 8.25C41.1716 8.25 40.5 7.57843 40.5 6.75C40.5 5.92157 41.1716 5.25 42 5.25C42.8284 5.25 43.5 5.92157 43.5 6.75Z" fill="#008498"/>
<path d="M46.5 3C46.5 3.82843 45.8284 4.5 45 4.5C44.1716 4.5 43.5 3.82843 43.5 3C43.5 2.17157 44.1716 1.5 45 1.5C45.8284 1.5 46.5 2.17157 46.5 3Z" fill="#008498"/>
</svg>
