<svg width="335" height="746" viewBox="0 0 335 746" fill="none" xmlns="http://www.w3.org/2000/svg">
<rect width="335" height="746" rx="20" fill="#D9F0FF"/>
<path d="M174.675 339.601C173.696 340.764 172.717 341.928 171.738 343.092C171.376 343.516 170.695 342.99 171.057 342.553C172.036 341.389 173.015 340.226 173.995 339.062C174.356 338.638 175.038 339.164 174.675 339.601Z" fill="#57C5CE"/>
<path d="M224.767 346.685C224.516 348.187 224.278 349.69 224.027 351.193C223.937 351.744 223.083 351.638 223.174 351.087C223.425 349.585 223.663 348.082 223.914 346.579C224.004 346.028 224.857 346.134 224.767 346.685Z" fill="#57C5CE"/>
<path d="M222.208 319.72C223.107 320.938 224.02 322.145 224.92 323.363C225.251 323.809 224.592 324.37 224.248 323.923C223.348 322.705 222.436 321.499 221.536 320.28C221.204 319.835 221.864 319.274 222.208 319.72Z" fill="#57C5CE"/>
<path d="M141.357 332.485C142.815 332.885 144.26 333.285 145.718 333.685C146.253 333.837 146.06 334.686 145.524 334.534C144.066 334.133 142.621 333.734 141.164 333.334C140.628 333.181 140.822 332.332 141.357 332.485Z" fill="#57C5CE"/>
<path d="M188.068 337.553C186.835 336.684 185.59 335.815 184.357 334.959C183.905 334.646 184.359 333.899 184.823 334.224C186.055 335.093 187.3 335.962 188.534 336.818C188.985 337.131 188.532 337.879 188.068 337.553Z" fill="#57C5CE"/>
<path d="M303.605 348.868C305.053 348.434 306.49 347.988 307.938 347.554C308.464 347.391 308.751 348.213 308.213 348.376C306.765 348.809 305.329 349.256 303.88 349.689C303.355 349.853 303.067 349.031 303.605 348.868Z" fill="#57C5CE"/>
<path d="M287.486 347.467C288.331 346.209 289.177 344.937 290.022 343.679C290.335 343.215 291.07 343.667 290.757 344.132C289.912 345.39 289.066 346.661 288.221 347.92C287.908 348.384 287.173 347.931 287.486 347.467Z" fill="#57C5CE"/>
<path d="M278.194 338.728C279.354 337.75 280.5 336.771 281.66 335.781C282.082 335.423 282.67 336.058 282.235 336.427C281.075 337.405 279.928 338.384 278.768 339.375C278.347 339.733 277.759 339.098 278.194 338.728Z" fill="#57C5CE"/>
<path d="M269.254 333.856C269.952 332.502 270.65 331.147 271.336 329.793C271.588 329.3 272.378 329.655 272.113 330.159C271.415 331.513 270.717 332.868 270.032 334.222C269.78 334.715 268.989 334.36 269.254 333.856Z" fill="#57C5CE"/>
<path d="M213.943 351.352C214.641 349.998 215.339 348.643 216.025 347.289C216.276 346.796 217.067 347.151 216.802 347.655C216.104 349.009 215.406 350.364 214.72 351.718C214.469 352.211 213.678 351.856 213.943 351.352Z" fill="#57C5CE"/>
<path d="M262.036 330.18C263.463 329.67 264.876 329.171 266.303 328.661C266.83 328.472 267.144 329.283 266.617 329.472C265.19 329.982 263.776 330.48 262.35 330.991C261.822 331.179 261.509 330.368 262.036 330.18Z" fill="#57C5CE"/>
<path d="M284.231 344.088C285.658 343.577 287.071 343.079 288.498 342.569C289.025 342.38 289.339 343.191 288.811 343.379C287.385 343.89 285.971 344.388 284.544 344.898C284.017 345.087 283.704 344.276 284.231 344.088Z" fill="#57C5CE"/>
<path d="M256.503 329.465C257.311 328.18 258.12 326.881 258.916 325.595C259.217 325.118 259.966 325.546 259.665 326.023C258.857 327.309 258.048 328.607 257.252 329.893C256.95 330.371 256.201 329.943 256.503 329.465Z" fill="#57C5CE"/>
<path d="M268.302 319.62C269.111 318.334 269.92 317.036 270.715 315.75C271.017 315.272 271.766 315.7 271.465 316.178C270.656 317.463 269.847 318.762 269.051 320.048C268.75 320.525 268.001 320.097 268.302 319.62Z" fill="#57C5CE"/>
<path d="M250.771 318.44C249.792 317.28 248.813 316.134 247.835 314.975C247.477 314.553 248.113 313.953 248.471 314.375C249.449 315.534 250.428 316.681 251.406 317.84C251.764 318.261 251.129 318.861 250.771 318.44Z" fill="#57C5CE"/>
<path d="M246.491 330.196C246.186 328.704 245.867 327.224 245.562 325.732C245.45 325.183 246.282 324.959 246.394 325.508C246.699 327 247.018 328.48 247.323 329.972C247.435 330.52 246.603 330.744 246.491 330.196Z" fill="#57C5CE"/>
<path d="M240.108 329.035C241.16 327.939 242.199 326.841 243.251 325.744C243.637 325.334 244.277 325.921 243.892 326.319C242.84 327.415 241.801 328.513 240.749 329.61C240.363 330.02 239.723 329.433 240.108 329.035Z" fill="#57C5CE"/>
<path d="M235.853 331.338C235.497 329.856 235.127 328.386 234.771 326.904C234.634 326.354 235.466 326.118 235.604 326.655C235.96 328.137 236.33 329.607 236.686 331.088C236.823 331.638 235.991 331.875 235.853 331.338Z" fill="#57C5CE"/>
<path d="M232.093 332.554C231.194 331.335 230.281 330.129 229.381 328.91C229.05 328.465 229.709 327.904 230.053 328.35C230.953 329.569 231.865 330.775 232.765 331.993C233.097 332.439 232.437 333 232.093 332.554Z" fill="#57C5CE"/>
<path d="M229.047 333.388C227.55 333.276 226.04 333.164 224.544 333.04C223.99 333 224.02 332.13 224.586 332.171C226.084 332.282 227.593 332.395 229.09 332.519C229.643 332.559 229.613 333.429 229.047 333.388Z" fill="#57C5CE"/>
<path d="M223.163 337.226C222.092 336.151 221.033 335.088 219.962 334.013C219.565 333.615 220.152 332.975 220.549 333.373C221.62 334.448 222.679 335.51 223.75 336.586C224.147 336.984 223.56 337.624 223.163 337.226Z" fill="#57C5CE"/>
<path d="M237.768 350.368C236.698 349.293 235.639 348.231 234.568 347.155C234.171 346.757 234.758 346.117 235.155 346.515C236.226 347.59 237.285 348.653 238.355 349.728C238.753 350.126 238.165 350.766 237.768 350.368Z" fill="#57C5CE"/>
<path d="M208.683 317.425C207.692 316.277 206.713 315.131 205.722 313.984C205.364 313.562 205.987 312.962 206.345 313.383C207.336 314.53 208.315 315.677 209.307 316.824C209.665 317.246 209.041 317.846 208.683 317.425Z" fill="#57C5CE"/>
<path d="M212.727 357.818C211.736 356.671 210.757 355.525 209.766 354.378C209.407 353.956 210.031 353.355 210.389 353.777C211.38 354.924 212.359 356.071 213.35 357.218C213.709 357.64 213.085 358.24 212.727 357.818Z" fill="#57C5CE"/>
<path d="M213.4 344.697C211.92 344.991 210.441 345.284 208.963 345.564C208.414 345.676 208.216 344.821 208.764 344.721C210.243 344.428 211.723 344.135 213.201 343.855C213.75 343.743 213.947 344.598 213.4 344.697Z" fill="#57C5CE"/>
<path d="M208.817 350.569C207.403 350.045 205.989 349.533 204.575 349.009C204.054 348.819 204.31 347.986 204.844 348.176C206.257 348.701 207.671 349.212 209.085 349.736C209.606 349.926 209.35 350.759 208.817 350.569Z" fill="#57C5CE"/>
<path d="M150.737 338.161C149.258 338.454 147.779 338.747 146.299 339.041C145.751 339.152 145.553 338.297 146.101 338.198C147.58 337.904 149.059 337.611 150.539 337.318C151.087 337.206 151.285 338.062 150.737 338.161Z" fill="#57C5CE"/>
<path d="M204.269 356.24C203.134 357.244 201.998 358.261 200.875 359.266C200.452 359.637 199.864 359.015 200.274 358.643C201.409 357.639 202.546 356.622 203.668 355.617C204.091 355.246 204.679 355.869 204.269 356.24Z" fill="#57C5CE"/>
<path d="M239.347 334.477C240.808 334.826 242.28 335.177 243.741 335.526C244.277 335.654 244.108 336.517 243.572 336.377C242.112 336.027 240.639 335.677 239.179 335.327C238.643 335.199 238.811 334.337 239.347 334.477Z" fill="#57C5CE"/>
<path d="M244.638 294.531C244.163 295.971 243.688 297.425 243.212 298.866C243.035 299.4 242.213 299.158 242.378 298.635C242.853 297.194 243.329 295.741 243.804 294.3C243.982 293.766 244.803 294.008 244.638 294.531Z" fill="#57C5CE"/>
<path d="M111.045 323.921C111.693 322.552 112.355 321.17 113.003 319.801C113.243 319.295 114.034 319.637 113.794 320.143C113.146 321.512 112.484 322.894 111.836 324.263C111.596 324.769 110.805 324.427 111.045 323.921Z" fill="#57C5CE"/>
<path d="M231.318 308.593C232.806 308.364 234.295 308.134 235.796 307.918C236.343 307.831 236.503 308.685 235.956 308.771C234.467 309.001 232.978 309.23 231.478 309.447C230.93 309.533 230.77 308.68 231.318 308.593Z" fill="#57C5CE"/>
<path d="M189.571 350.617C191.059 350.387 192.548 350.158 194.049 349.942C194.596 349.855 194.756 350.709 194.209 350.795C192.72 351.025 191.231 351.254 189.73 351.471C189.183 351.557 189.023 350.704 189.571 350.617Z" fill="#57C5CE"/>
<path d="M200.439 338.39C201.051 336.994 201.651 335.597 202.262 334.201C202.49 333.682 203.295 333.999 203.067 334.518C202.456 335.914 201.856 337.311 201.245 338.708C201.017 339.227 200.212 338.909 200.439 338.39Z" fill="#57C5CE"/>
<path d="M277.219 348.009C275.837 348.635 274.468 349.249 273.086 349.875C272.582 350.103 272.191 349.326 272.707 349.099C274.089 348.473 275.458 347.859 276.84 347.233C277.344 347.005 277.735 347.782 277.219 348.009Z" fill="#57C5CE"/>
<path d="M225.544 309.937C225.556 308.41 225.58 306.896 225.592 305.369C225.594 304.814 226.455 304.781 226.453 305.336C226.44 306.863 226.416 308.377 226.404 309.904C226.402 310.459 225.542 310.492 225.544 309.937Z" fill="#57C5CE"/>
<path d="M230.313 343.057C230.325 341.53 230.349 340.017 230.361 338.49C230.363 337.934 231.224 337.901 231.221 338.456C231.209 339.983 231.185 341.497 231.173 343.024C231.171 343.579 230.311 343.613 230.313 343.057Z" fill="#57C5CE"/>
<path d="M267.891 347.94C267.903 346.413 267.927 344.899 267.939 343.373C267.941 342.817 268.801 342.784 268.799 343.339C268.787 344.866 268.763 346.38 268.751 347.907C268.749 348.462 267.888 348.495 267.891 347.94Z" fill="#57C5CE"/>
<path d="M321.008 358.033C319.813 358.958 318.618 359.897 317.423 360.823C316.977 361.167 316.429 360.496 316.876 360.152C318.07 359.226 319.266 358.288 320.46 357.362C320.907 357.018 321.455 357.689 321.008 358.033Z" fill="#57C5CE"/>
<path d="M239.66 342.218C238.345 341.484 237.031 340.738 235.716 340.004C235.237 339.728 235.617 338.951 236.108 339.228C237.423 339.962 238.737 340.708 240.052 341.442C240.531 341.718 240.152 342.495 239.66 342.218Z" fill="#57C5CE"/>
<path d="M321.162 352.864C321.338 351.346 321.513 349.839 321.689 348.321C321.754 347.768 322.61 347.823 322.544 348.388C322.369 349.907 322.193 351.413 322.017 352.932C321.952 353.484 321.096 353.429 321.162 352.864Z" fill="#57C5CE"/>
<path d="M184.481 317.329C185.134 318.7 185.786 320.07 186.438 321.44C186.678 321.944 185.913 322.361 185.672 321.857C185.02 320.487 184.368 319.116 183.716 317.746C183.476 317.242 184.241 316.825 184.481 317.329Z" fill="#57C5CE"/>
<path d="M328.24 350.689C327.274 349.53 326.296 348.371 325.33 347.213C324.972 346.791 325.608 346.191 325.965 346.625C326.931 347.784 327.909 348.943 328.875 350.101C329.233 350.523 328.597 351.123 328.24 350.689Z" fill="#57C5CE"/>
<path d="M225.033 341.03C223.815 341.929 222.584 342.815 221.365 343.714C220.92 344.046 220.385 343.363 220.831 343.032C222.049 342.132 223.28 341.246 224.499 340.347C224.944 340.015 225.479 340.698 225.033 341.03Z" fill="#57C5CE"/>
<path d="M239.816 303.47C238.501 302.736 237.173 302.014 235.858 301.281C235.378 301.017 235.758 300.228 236.237 300.504C237.552 301.238 238.88 301.96 240.195 302.694C240.674 302.957 240.295 303.746 239.816 303.47Z" fill="#57C5CE"/>
<path d="M232.446 316.703C231.348 315.664 230.237 314.637 229.139 313.598C228.729 313.212 229.291 312.558 229.702 312.932C230.8 313.971 231.911 314.997 233.009 316.036C233.419 316.423 232.857 317.076 232.446 316.703Z" fill="#57C5CE"/>
</svg>
