<svg width="1360" height="642" viewBox="0 0 1360 642" fill="none" xmlns="http://www.w3.org/2000/svg">
<path d="M0 20C0 8.95432 8.95431 0 20 0H1340C1351.05 0 1360 8.95431 1360 20V622C1360 633.046 1351.05 642 1340 642H20C8.95432 642 0 633.046 0 622V20Z" fill="#D9F0FF"/>
<path d="M653.415 247.703C653.973 250.644 654.531 253.585 655.088 256.526C655.285 257.605 653.636 257.991 653.42 256.895C652.863 253.954 652.305 251.013 651.747 248.072C651.55 246.992 653.2 246.607 653.415 247.703Z" fill="#57C5CE"/>
<path d="M726.513 180.083C728.494 182.334 730.491 184.567 732.471 186.818C733.2 187.641 731.978 188.813 731.249 187.99C729.269 185.739 727.272 183.506 725.291 181.255C724.563 180.432 725.785 179.26 726.513 180.083Z" fill="#57C5CE"/>
<path d="M682.189 150.458C685.166 150.6 688.142 150.708 691.12 150.85C692.212 150.898 692.248 152.601 691.139 152.572C688.162 152.429 685.186 152.322 682.208 152.179C681.116 152.131 681.08 150.428 682.189 150.458Z" fill="#57C5CE"/>
<path d="M601.127 289.69C603.55 287.964 605.956 286.256 608.379 284.529C609.278 283.902 610.333 285.253 609.434 285.88C607.011 287.606 604.604 289.314 602.181 291.041C601.283 291.668 600.228 290.317 601.127 289.69Z" fill="#57C5CE"/>
<path d="M666.945 224.722C664.087 225.523 661.212 226.341 658.372 227.158C657.334 227.459 656.757 225.837 657.831 225.535C660.689 224.734 663.563 223.916 666.403 223.099C667.442 222.798 668.019 224.42 666.945 224.722Z" fill="#57C5CE"/>
<path d="M827.88 62.5101C829.02 59.7613 830.124 57.0143 831.264 54.2655C831.668 53.2601 833.28 53.8433 832.859 54.8672C831.72 57.616 830.616 60.363 829.476 63.1118C829.072 64.1173 827.459 63.534 827.88 62.5101Z" fill="#57C5CE"/>
<path d="M805.699 85.3621C804.829 82.5079 803.941 79.637 803.072 76.7827C802.753 75.7273 804.358 75.1686 804.677 76.2239C805.547 79.0782 806.435 81.9491 807.304 84.8034C807.623 85.8587 806.018 86.4175 805.699 85.3621Z" fill="#57C5CE"/>
<path d="M780.81 88.672C780.759 85.6868 780.692 82.7201 780.623 79.7184C780.602 78.6299 782.301 78.5231 782.325 79.6467C782.375 82.6318 782.442 85.5985 782.511 88.6003C782.532 89.6888 780.833 89.7956 780.81 88.672Z" fill="#57C5CE"/>
<path d="M762.26 96.2539C761.062 93.5047 759.864 90.7555 758.649 88.0248C758.21 87.0285 759.735 86.263 760.175 87.2944C761.373 90.0436 762.571 92.7928 763.786 95.5235C764.225 96.5198 762.7 97.2853 762.26 96.2539Z" fill="#57C5CE"/>
<path d="M720.174 202.403C718.976 199.654 717.778 196.904 716.563 194.174C716.125 193.177 717.649 192.412 718.089 193.443C719.287 196.192 720.485 198.942 721.7 201.672C722.139 202.669 720.615 203.434 720.174 202.403Z" fill="#57C5CE"/>
<path d="M747.675 102.696C748.671 99.8846 749.668 97.1081 750.664 94.2965C751.031 93.2578 752.658 93.7876 752.291 94.8262C751.295 97.6378 750.298 100.414 749.302 103.226C748.934 104.265 747.307 103.735 747.675 102.696Z" fill="#57C5CE"/>
<path d="M796.494 86.1264C797.49 83.3149 798.487 80.5384 799.483 77.7268C799.85 76.6881 801.477 77.2179 801.11 78.2565C800.114 81.0681 799.117 83.8446 798.121 86.6562C797.754 87.6948 796.127 87.1651 796.494 86.1264Z" fill="#57C5CE"/>
<path d="M739.704 110.25C738.747 107.418 737.773 104.569 736.8 101.755C736.446 100.702 738.031 100.091 738.385 101.145C739.341 103.977 740.316 106.826 741.289 109.64C741.643 110.693 740.058 111.304 739.704 110.25Z" fill="#57C5CE"/>
<path d="M739.355 80.0038C738.398 77.1716 737.424 74.3229 736.451 71.5092C736.097 70.4556 737.682 69.8452 738.036 70.8987C738.992 73.7309 739.967 76.5796 740.94 79.3933C741.293 80.4468 739.708 81.0573 739.355 80.0038Z" fill="#57C5CE"/>
<path d="M715.753 105.285C712.768 105.337 709.802 105.404 706.817 105.456C705.728 105.478 705.603 103.762 706.692 103.74C709.677 103.689 712.644 103.621 715.629 103.57C716.717 103.548 716.842 105.263 715.753 105.285Z" fill="#57C5CE"/>
<path d="M728.369 126.434C725.713 125.045 723.059 123.69 720.403 122.3C719.427 121.789 720.12 120.241 721.095 120.752C723.751 122.142 726.406 123.497 729.062 124.886C730.038 125.398 729.345 126.945 728.369 126.434Z" fill="#57C5CE"/>
<path d="M718.662 134.729C718.296 131.761 717.913 128.811 717.547 125.842C717.402 124.743 719.094 124.496 719.221 125.579C719.587 128.547 719.969 131.497 720.335 134.466C720.48 135.566 718.788 135.812 718.662 134.729Z" fill="#57C5CE"/>
<path d="M716.883 144.085C714.179 142.786 711.477 141.522 708.773 140.222C707.764 139.748 708.438 138.184 709.428 138.641C712.132 139.941 714.834 141.205 717.539 142.504C718.548 142.978 717.873 144.543 716.883 144.085Z" fill="#57C5CE"/>
<path d="M714.063 151.333C711.085 151.191 708.109 151.083 705.132 150.941C704.04 150.893 704.003 149.19 705.112 149.22C708.09 149.362 711.066 149.47 714.043 149.612C715.135 149.66 715.172 151.363 714.063 151.333Z" fill="#57C5CE"/>
<path d="M711.548 157.019C709.515 159.165 707.467 161.328 705.416 163.457C704.667 164.252 703.378 163.125 704.144 162.311C706.176 160.166 708.225 158.002 710.275 155.873C711.025 155.078 712.314 156.206 711.548 157.019Z" fill="#57C5CE"/>
<path d="M710.086 170.769C707.114 171.066 704.177 171.361 701.205 171.657C700.103 171.768 699.857 170.076 700.958 169.965C703.93 169.669 706.868 169.374 709.84 169.078C710.941 168.967 711.188 170.659 710.086 170.769Z" fill="#57C5CE"/>
<path d="M748.3 164.827C745.328 165.124 742.391 165.418 739.419 165.715C738.317 165.825 738.071 164.134 739.172 164.023C742.144 163.726 745.082 163.432 748.054 163.135C749.155 163.025 749.402 164.716 748.3 164.827Z" fill="#57C5CE"/>
<path d="M661.869 168.238C658.886 168.325 655.919 168.392 652.936 168.479C651.847 168.501 651.706 166.803 652.794 166.781C655.778 166.695 658.744 166.627 661.728 166.541C662.816 166.519 662.957 168.216 661.869 168.238Z" fill="#57C5CE"/>
<path d="M728.529 212.298C725.546 212.385 722.579 212.453 719.596 212.539C718.508 212.561 718.366 210.863 719.455 210.841C722.438 210.755 725.405 210.687 728.388 210.601C729.476 210.579 729.618 212.276 728.529 212.298Z" fill="#57C5CE"/>
<path d="M709.346 194.957C707.953 197.578 706.561 200.2 705.151 202.805C704.639 203.78 703.088 203.018 703.618 202.059C705.01 199.437 706.402 196.816 707.813 194.211C708.324 193.235 709.876 193.997 709.346 194.957Z" fill="#57C5CE"/>
<path d="M712.605 209.25C710.048 210.755 707.508 212.277 704.951 213.782C704.013 214.341 703.06 212.915 704.014 212.337C706.572 210.832 709.111 209.31 711.669 207.805C712.606 207.246 713.559 208.673 712.605 209.25Z" fill="#57C5CE"/>
<path d="M621.451 282.437C620.059 285.058 618.667 287.68 617.275 290.301C616.763 291.277 615.212 290.515 615.742 289.556C617.134 286.934 618.526 284.313 619.918 281.691C620.43 280.715 621.981 281.478 621.451 282.437Z" fill="#57C5CE"/>
<path d="M715.603 223.241C715.723 226.222 715.862 229.22 716 232.183C716.04 233.288 714.359 233.412 714.302 232.325C714.182 229.344 714.043 226.346 713.906 223.383C713.865 222.277 715.546 222.154 715.603 223.241Z" fill="#57C5CE"/>
<path d="M726.018 142.656C728.367 140.864 730.733 139.052 733.082 137.259C733.944 136.599 735.05 137.929 734.17 138.573C731.821 140.366 729.455 142.177 727.106 143.97C726.244 144.631 725.137 143.3 726.018 142.656Z" fill="#57C5CE"/>
<path d="M671.648 84.9105C673.256 87.4273 674.882 89.9607 676.49 92.4774C677.084 93.4129 675.692 94.3647 675.1 93.4643C673.493 90.9475 671.866 88.4141 670.259 85.8974C669.665 84.9619 671.056 84.0101 671.648 84.9105Z" fill="#57C5CE"/>
<path d="M550.366 325.29C549.083 322.598 547.798 319.871 546.515 317.179C546.041 316.185 547.547 315.403 548.021 316.397C549.304 319.089 550.589 321.816 551.872 324.508C552.345 325.503 550.84 326.285 550.366 325.29Z" fill="#57C5CE"/>
<path d="M676.54 122.722C678.041 120.165 679.542 117.608 681.078 115.049C681.626 114.107 683.128 114.924 682.579 115.867C681.078 118.424 679.578 120.981 678.042 123.539C677.493 124.482 675.992 123.664 676.54 122.722Z" fill="#57C5CE"/>
<path d="M688.746 238.675C690.247 236.119 691.748 233.562 693.284 231.003C693.832 230.06 695.333 230.878 694.785 231.82C693.284 234.377 691.783 236.934 690.247 239.493C689.699 240.436 688.197 239.618 688.746 238.675Z" fill="#57C5CE"/>
<path d="M683.606 206.888C682.236 204.218 680.85 201.567 679.481 198.897C678.972 197.904 680.457 197.07 680.966 198.063C682.336 200.733 683.722 203.384 685.092 206.054C685.6 207.047 684.115 207.881 683.606 206.888Z" fill="#57C5CE"/>
<path d="M793.757 101.701C792.994 104.588 792.229 107.441 791.466 110.328C791.187 111.379 789.516 111.01 789.811 109.94C790.575 107.053 791.34 104.201 792.103 101.313C792.382 100.262 794.053 100.631 793.757 101.701Z" fill="#57C5CE"/>
<path d="M671.411 133.202C669.096 131.285 666.817 129.366 664.502 127.449C663.657 126.755 664.676 125.401 665.521 126.095C667.835 128.012 670.115 129.931 672.43 131.848C673.274 132.542 672.255 133.896 671.411 133.202Z" fill="#57C5CE"/>
<path d="M727.875 167.112C725.56 165.194 723.281 163.275 720.966 161.358C720.121 160.664 721.14 159.31 721.985 160.004C724.299 161.921 726.579 163.84 728.893 165.758C729.738 166.451 728.719 167.805 727.875 167.112Z" fill="#57C5CE"/>
<path d="M782.053 115.848C779.738 113.931 777.459 112.012 775.144 110.095C774.3 109.401 775.319 108.047 776.163 108.741C778.478 110.658 780.757 112.577 783.072 114.494C783.917 115.188 782.898 116.542 782.053 115.848Z" fill="#57C5CE"/>
<path d="M863.505 47.3536C863.431 50.3276 863.377 53.3183 863.303 56.2923C863.273 57.4012 861.569 57.4027 861.599 56.2939C861.672 53.3199 861.727 50.3292 861.8 47.3552C861.83 46.2463 863.534 46.2447 863.505 47.3536Z" fill="#57C5CE"/>
<path d="M738.218 151.806C735.463 152.899 732.69 153.976 729.935 155.07C728.918 155.457 728.205 153.913 729.238 153.507C731.993 152.414 734.766 151.336 737.521 150.243C738.538 149.856 739.251 151.4 738.218 151.806Z" fill="#57C5CE"/>
<path d="M855.81 40.6921C853.712 38.5351 851.632 36.3946 849.533 34.2375C848.771 33.4515 849.919 32.2137 850.699 33.0163C852.798 35.1734 854.878 37.3139 856.977 39.4709C857.738 40.257 856.59 41.4948 855.81 40.6921Z" fill="#57C5CE"/>
<path d="M631.629 205.046C634.53 205.755 637.432 206.464 640.334 207.173C641.402 207.433 641.086 209.12 640.018 208.859C637.116 208.15 634.214 207.441 631.312 206.733C630.244 206.472 630.56 204.786 631.629 205.046Z" fill="#57C5CE"/>
<path d="M861.292 27.1879C858.323 27.2206 855.338 27.2718 852.37 27.3046C851.281 27.3266 851.156 25.6108 852.263 25.6054C855.232 25.5726 858.217 25.5214 861.185 25.4886C862.274 25.4667 862.399 27.1825 861.292 27.1879Z" fill="#57C5CE"/>
<path d="M718.216 172.645C718.073 175.623 717.894 178.602 717.751 181.58C717.703 182.672 715.996 182.639 716.045 181.547C716.188 178.569 716.366 175.589 716.51 172.612C716.558 171.519 718.264 171.553 718.216 172.645Z" fill="#57C5CE"/>
<path d="M679.292 103.385C676.537 104.479 673.784 105.608 671.029 106.701C670.03 107.105 669.299 105.544 670.315 105.157C673.07 104.063 675.823 102.935 678.578 101.841C679.576 101.437 680.308 102.998 679.292 103.385Z" fill="#57C5CE"/>
<path d="M690.316 131.085C687.366 131.468 684.418 131.887 681.468 132.27C680.368 132.416 680.07 130.744 681.151 130.582C684.101 130.199 687.049 129.78 690 129.397C691.099 129.251 691.397 130.923 690.316 131.085Z" fill="#57C5CE"/>
</svg>
