<svg width="80" height="97" viewBox="0 0 80 97" fill="none" xmlns="http://www.w3.org/2000/svg">
<path d="M13.7056 42.5015L13.4124 22.893L15.9528 23.6283L25.8817 40.9675L24.6035 40.8855L24.3819 26.0681L27.6109 27.0028L27.9041 46.6113L25.34 45.8691L15.5524 28.4653L16.7351 28.5196L16.9582 43.443L13.7056 42.5015Z" fill="white"/>
<path d="M30.0347 47.2852L29.7415 27.6779L37.2211 29.8428C38.3765 30.1773 39.3767 30.689 40.2227 31.3797C41.0687 32.0703 41.7229 32.8929 42.1863 33.8478C42.6498 34.8039 42.8907 35.8508 42.9077 36.9919C42.9214 37.9047 42.7158 38.6883 42.2932 39.3432C41.8694 39.9978 41.1859 40.4345 40.2437 40.6497L40.2189 38.9911C41.0952 39.6123 41.7906 40.268 42.305 40.9583C42.8194 41.6485 43.1851 42.3578 43.401 43.0834C43.6168 43.8101 43.7297 44.5418 43.7407 45.2776C43.7688 47.1557 43.2327 48.4631 42.1325 49.2013C41.0323 49.9395 39.4933 50.023 37.5143 49.4501L30.0347 47.2852ZM33.109 36.2254L37.5013 37.4968C38.1662 37.6892 38.6929 37.6281 39.0825 37.3125C39.4721 36.9969 39.6618 36.4981 39.6516 35.8134C39.6413 35.1288 39.4352 34.5278 39.0331 34.0104C38.6311 33.4917 38.0982 33.1375 37.4332 32.9451L33.0409 31.6737L33.109 36.2254ZM33.2412 45.0682L37.8 46.3878C38.6394 46.6307 39.3038 46.566 39.7944 46.1915C40.2851 45.8183 40.5246 45.2022 40.5117 44.3417C40.4989 43.4825 40.2387 42.7168 39.7325 42.0463C39.2262 41.3758 38.5528 40.9189 37.7146 40.6763L33.1558 39.3567L33.2412 45.0682Z" fill="white"/>
<path d="M47.1061 34.2102L44.6883 33.5104L44.8091 41.59L47.2269 42.2898L47.1061 34.2102Z" fill="#00C2E0"/>
<path d="M43.3808 31.3986L47.0876 29.8256L47.1314 32.7524L43.4227 34.2007L43.3808 31.3986Z" fill="#00C2E0"/>
<path d="M14.5908 0.266662C15.282 -0.00932968 16.04 -0.0726765 16.7676 0.0840451L79.8799 13.6827L78.0195 85.6133C77.9881 86.8288 77.3683 87.9533 76.3574 88.629L64.4385 96.5948L4.53027 76.9493C3.03063 76.4575 1.99986 75.0786 1.9541 73.501L0 6.09283L14.5908 0.266662ZM3.9248 73.4434C3.94645 74.1901 4.43471 74.8435 5.14453 75.0762L63.332 94.1573L64.8779 22.2618L2.02734 7.99518L3.9248 73.4434ZM66.8545 22.0743L65.3154 93.6368L75.2617 86.9903C75.7402 86.6705 76.0339 86.1379 76.0488 85.5626L77.8428 16.1485L66.8545 22.0743ZM16.3525 2.0108C16.0082 1.93663 15.6494 1.96709 15.3223 2.09772L4.31445 6.49225L65.7383 20.4356L76.0527 14.8741L16.3525 2.0108Z" fill="#D5D5D5"/>
<path d="M53.9386 72.9569V74.4346L52.0201 73.848V79.9419L50.2564 79.4027V73.3088L48.3379 72.7223V71.2446L53.9386 72.9569Z" fill="#D5D5D5"/>
<path d="M47.4522 70.9738V78.5453L45.6885 78.0061V70.4346L47.4522 70.9738Z" fill="#D5D5D5"/>
<path d="M42.694 77.0908L40.2598 73.003V76.3466L38.4961 75.8074V68.2358L40.2598 68.7751V72.0971L42.6734 69.513L44.7466 70.1468L41.9411 72.9993L44.8497 77.7499L42.694 77.0908Z" fill="#D5D5D5"/>
<path d="M35.4249 67.2968V68.7744L33.5064 68.1879V74.2818L31.7427 73.7425V67.6486L29.8242 67.0621V65.5845L35.4249 67.2968Z" fill="#D5D5D5"/>
<path d="M26.4902 72.2122C25.9607 72.0503 25.4863 71.8154 25.0668 71.5074C24.6474 71.1994 24.3104 70.8303 24.056 70.4002C23.8085 69.9722 23.6778 69.508 23.6641 69.0077L25.5413 69.5816C25.5688 69.8704 25.6616 70.1145 25.8198 70.3139C25.9779 70.506 26.1842 70.641 26.4386 70.7188C26.6999 70.7987 26.9062 70.8006 27.0575 70.7246C27.2088 70.6414 27.2844 70.4884 27.2844 70.2655C27.2844 70.0786 27.2225 69.905 27.0987 69.745C26.9818 69.587 26.834 69.4411 26.6552 69.3074C26.4833 69.1757 26.2358 69.0101 25.9126 68.8107C25.445 68.5167 25.0634 68.249 24.7677 68.0077C24.472 67.7663 24.2176 67.4656 24.0044 67.1056C23.7913 66.7456 23.6847 66.3283 23.6847 65.8538C23.6847 65.1491 23.9288 64.6737 24.417 64.4275C24.9052 64.1741 25.5413 64.1672 26.3252 64.4068C27.1228 64.6507 27.7657 65.0486 28.254 65.6005C28.7422 66.1453 29.0035 66.7788 29.0378 67.5012L27.1297 66.9178C27.1159 66.6691 27.03 66.4523 26.8718 66.2673C26.7137 66.0752 26.5108 65.9412 26.2633 65.8656C26.0501 65.8004 25.8782 65.8089 25.7476 65.8912C25.6169 65.9663 25.5516 66.1153 25.5516 66.3383C25.5516 66.5827 25.6616 66.8069 25.8817 67.0108C26.1017 67.2147 26.4455 67.4672 26.9131 67.7684C27.3807 68.0767 27.7589 68.3505 28.0477 68.5898C28.3433 68.8312 28.5978 69.1283 28.8109 69.4811C29.0241 69.8339 29.1307 70.2368 29.1307 70.6898C29.1307 71.1212 29.0241 71.4805 28.8109 71.7676C28.6046 72.0569 28.3021 72.2448 27.9033 72.3314C27.5044 72.418 27.0334 72.3783 26.4902 72.2122Z" fill="#D5D5D5"/>
<path d="M20.0548 64.075V65.6065L22.4168 66.3287V67.7524L20.0548 67.0302V68.6912L22.7262 69.508V70.9856L18.291 69.6296V62.0581L22.7262 63.4141V64.8917L20.0548 64.075Z" fill="#D5D5D5"/>
<path d="M17.4054 61.7875V63.2651L15.4869 62.6786V68.7725L13.7232 68.2333V62.1394L11.8047 61.5528V60.0752L17.4054 61.7875Z" fill="#D5D5D5"/>
</svg>
