<svg width="77" height="104" viewBox="0 0 77 104" fill="none" xmlns="http://www.w3.org/2000/svg">
<g clip-path="url(#clip0_64_303)">
<path d="M32.0067 94.7676C14.0595 94.7676 0 88.1976 0 79.8098C0 71.4221 14.0595 64.8521 32.0067 64.8521C49.9539 64.8521 64.0134 71.4221 64.0134 79.8098C64.0134 82.5519 62.4891 85.2083 59.6066 87.4931C59.1166 87.8823 58.4066 87.7967 58.0226 87.3004C57.6367 86.8061 57.7235 86.0899 58.2136 85.7027C59.8304 84.4221 61.7579 82.3592 61.7579 79.8098C61.7579 72.9362 48.1345 67.129 32.0086 67.129C15.8828 67.129 2.25739 72.9342 2.25739 79.8098C2.25739 86.6854 15.8808 92.4907 32.0067 92.4907C37.9897 92.4907 43.7721 91.7142 48.7249 90.2429C49.321 90.0678 49.95 90.4103 50.1256 91.0136C50.3012 91.6169 49.9597 92.2494 49.3616 92.4265C44.2043 93.9561 38.202 94.7657 32.0067 94.7657V94.7676Z" fill="#D5D5D5"/>
<path d="M32.0068 104C24.1832 104 16.6701 102.7 10.853 100.339C10.2742 100.104 9.99442 99.4422 10.2279 98.8584C10.4613 98.2745 11.1193 97.9923 11.6961 98.2278C17.2509 100.481 24.4629 101.723 32.0068 101.723C48.1327 101.723 61.7561 95.9158 61.7561 89.0422V79.8099C61.7561 79.1813 62.2616 78.6714 62.8848 78.6714C63.508 78.6714 64.0135 79.1813 64.0135 79.8099V89.0422C64.0135 97.4299 49.954 104 32.0068 104Z" fill="#D5D5D5"/>
<path d="M6.91301 98.2356C6.71043 98.2356 6.50591 98.1811 6.32069 98.0663C2.186 95.4897 0 92.37 0 89.0422V79.8099C0 79.1813 0.505501 78.6714 1.12869 78.6714C1.75189 78.6714 2.25739 79.1813 2.25739 79.8099V89.0422C2.25739 92.1968 5.11096 94.6373 7.50726 96.128C8.03785 96.4588 8.20185 97.1594 7.87385 97.6946C7.65969 98.0429 7.29117 98.2356 6.91301 98.2356Z" fill="#D5D5D5"/>
<path d="M20.122 59.187C20.122 59.187 26.9308 67.7479 26.9829 74.1059C27.0234 79.2163 24.0309 82.1822 20.3072 82.2114C16.5854 82.2425 13.5447 79.3273 13.5023 74.2149C13.4502 67.8569 20.122 59.1851 20.122 59.1851V59.187Z" fill="#00C2E0"/>
<path d="M20.7196 52.5275C19.7395 52.5275 18.7864 52.1305 18.1226 51.3482C17.5052 50.6203 17.2313 49.6823 17.349 48.7054C17.4609 47.7635 17.9297 46.8955 18.6648 46.2611L24.7733 40.9891C24.7019 39.078 25.5238 37.2117 27.0403 35.9019L66.9999 1.41108C69.4445 -0.700451 73.1393 -0.410481 75.2307 2.05718C77.3241 4.52485 77.0366 8.2497 74.5902 10.3593L34.6286 44.8482C33.1102 46.1579 31.1576 46.6873 29.2957 46.3214L23.1873 51.5934C22.4638 52.2181 21.5801 52.5256 20.7177 52.5256L20.7196 52.5275ZM70.7931 2.27515C69.9693 2.27515 69.1415 2.55928 68.4682 3.14117L28.5086 37.6301C27.4281 38.5642 26.8744 39.9732 27.0654 41.3082C27.1213 41.6955 26.9766 42.0828 26.6814 42.3358L20.1311 47.9892C19.8263 48.2519 19.6334 48.6022 19.589 48.9759C19.5485 49.3126 19.6372 49.6298 19.8379 49.8653C20.2778 50.3829 21.1209 50.381 21.7229 49.8633L28.2732 44.2099C28.5684 43.9549 28.9697 43.8713 29.3382 43.9861C30.6174 44.3811 32.0837 44.0503 33.1642 43.1181L73.1238 8.63113C74.623 7.33697 74.8005 5.05224 73.5174 3.53817C72.8093 2.70524 71.8041 2.27515 70.7931 2.27515Z" fill="#D5D5D5"/>
<path d="M56.4906 28.1194C56.4115 28.1194 56.3304 28.1155 56.2513 28.1097C55.441 28.0455 54.704 27.6679 54.1753 27.0471L47.5594 19.2568C46.4674 17.9724 46.6179 16.0321 47.8913 14.9306L47.9549 14.8761C49.2303 13.7746 51.1539 13.9245 52.244 15.2089L58.8579 22.9992C59.3866 23.6219 59.6432 24.414 59.5815 25.2314C59.5178 26.0487 59.1435 26.7922 58.5261 27.3254L58.4624 27.3799C57.9067 27.8625 57.2122 28.1194 56.4886 28.1194H56.4906ZM55.8905 25.5661C56.0275 25.7276 56.2166 25.8249 56.4269 25.8405C56.6372 25.8561 56.8379 25.7899 56.998 25.6537L57.0617 25.5972C57.2218 25.4591 57.3183 25.2664 57.3337 25.0562C57.3492 24.8461 57.2836 24.6417 57.1466 24.4802L50.5326 16.6899C50.2509 16.3591 49.7551 16.3202 49.4251 16.6043L49.3615 16.6588C49.2013 16.7969 49.1049 16.9896 49.0894 17.1998C49.074 17.4119 49.1396 17.6143 49.2746 17.7758L55.8905 25.5681V25.5661Z" fill="#D5D5D5"/>
</g>
<defs>
<clipPath id="clip0_64_303">
<rect width="76.6316" height="104" fill="white"/>
</clipPath>
</defs>
</svg>
