<svg width="112" height="101" viewBox="0 0 112 101" fill="none" xmlns="http://www.w3.org/2000/svg">
<path d="M99.6289 33.3262L98.2422 73.4482L96.5146 72.8848L85.0684 82.9189V90.0859L1.81445 62.2402L1.875 71.3506L83.9414 98.1074L105.027 78.3223L105.182 64.6924L106.081 64.7021L106.98 64.7129L106.821 78.7275L106.816 79.1113L84.3965 100.147L0.0859375 72.6592L0 59.7373L83.2695 87.5879V82.1055L94.5264 72.2354L9.73828 44.5576L9.34082 6.53906L99.6289 33.3262ZM11.5225 43.248L96.5273 70.9971L97.7832 34.6543L11.165 8.95508L11.5225 43.248Z" fill="#D5D5D5"/>
<path d="M24.6025 0.0927734L110.705 24.7051L110.211 26.4346L24.4316 1.91309L10.5986 8.37988L9.83691 6.75098L24.2793 0L24.6025 0.0927734Z" fill="#D5D5D5"/>
<path d="M14.6519 45.8379L7.20854 51.0947C6.31735 51.7241 5.79818 52.756 5.82475 53.8467L6.02885 62.2432L5.13041 62.2656L4.23198 62.2871L4.0269 53.8906C3.98572 52.2007 4.78972 50.6013 6.17045 49.626L13.6148 44.3691L14.6519 45.8379Z" fill="#D5D5D5"/>
<path d="M9.62207 55.6758C9.62138 54.0281 10.4217 52.4827 11.7676 51.5322L19.2637 46.2393L20.3008 47.708L12.8047 53.001C11.9362 53.6144 11.4204 54.6125 11.4209 55.6758L11.4248 64.2568H10.5264L9.62695 64.2578L9.62207 55.6758Z" fill="#D5D5D5"/>
<path d="M25.3008 49.2808L18.6338 54.9761C17.8889 55.6125 17.4687 56.5502 17.4883 57.5298L17.6573 65.9868L16.7578 66.0044L15.8594 66.0229L15.6905 57.5649C15.6602 56.047 16.3115 54.5951 17.4659 53.6089L24.1328 47.9136L25.3008 49.2808Z" fill="#D5D5D5"/>
<path d="M30.3774 50.7314L23.729 56.4121C22.9759 57.0555 22.5547 58.0055 22.5855 58.9941C22.6807 62.0555 22.77 64.55 22.8687 67.9219L21.0708 67.9746C20.9721 64.6018 20.8832 62.124 20.7876 59.0498C20.7399 57.5144 21.3942 56.0418 22.561 55.0449L29.2095 49.3643L30.3774 50.7314Z" fill="#D5D5D5"/>
<path d="M35.7477 52.4741L29.0915 58.1606C28.3418 58.8012 27.9209 59.7462 27.946 60.7319L28.1735 69.6567L27.2751 69.6792L26.3757 69.7026L26.1481 60.7778C26.1092 59.2502 26.7617 57.786 27.9235 56.7935L34.5798 51.1069L35.7477 52.4741Z" fill="#D5D5D5"/>
<path d="M41.1652 54.4526L34.5461 60.1069C33.7797 60.7617 33.3586 61.7337 33.4035 62.7407L33.8029 71.6968L32.006 71.7769L31.6066 62.8208C31.537 61.2603 32.1905 59.7544 33.3781 58.7397L39.9972 53.0854L41.1652 54.4526Z" fill="#D5D5D5"/>
<path d="M47.0536 56.1958L40.4237 61.8599C39.6624 62.5103 39.2404 63.4744 39.2792 64.4751L39.6181 73.1948L37.8212 73.2651L37.4823 64.5444C37.4221 62.9938 38.0759 61.5007 39.2558 60.4927L45.8857 54.8286L47.0536 56.1958Z" fill="#D5D5D5"/>
<path d="M52.6954 57.9814L46.0752 63.6367C45.3093 64.2911 44.8883 65.2622 44.9327 66.2686L45.334 75.3691L43.5371 75.4492L43.1358 66.3477C43.0671 64.7881 43.7204 63.2835 44.9073 62.2695L51.5274 56.6143L52.6954 57.9814Z" fill="#D5D5D5"/>
<path d="M58.6231 59.9097L52.003 65.5649C51.2371 66.2193 50.816 67.1904 50.8604 68.1968L51.2618 77.2974L49.4649 77.3774L49.0635 68.2759C48.9948 66.7163 49.6481 65.2118 50.835 64.1978L57.4551 58.5425L58.6231 59.9097Z" fill="#D5D5D5"/>
<path d="M64.4786 61.6948L57.8584 67.3501C57.0925 68.0045 56.6715 68.9755 56.7159 69.9819L57.1172 79.0825L55.3204 79.1626L54.919 70.061C54.8503 68.5015 55.5036 66.9969 56.6905 65.9829L63.3106 60.3276L64.4786 61.6948Z" fill="#D5D5D5"/>
<path d="M70.0498 63.623L63.4297 69.2783C62.6638 69.9327 62.2428 70.9038 62.2871 71.9102L62.6885 81.0107L60.8916 81.0908L60.4903 71.9893C60.4216 70.4297 61.0749 68.9252 62.2618 67.9111L68.8819 62.2559L70.0498 63.623Z" fill="#D5D5D5"/>
<path d="M75.4766 65.5513L68.8565 71.2065C68.0906 71.8609 67.6696 72.832 67.7139 73.8384L68.1153 82.939L66.3184 83.019L65.917 73.9175C65.8483 72.3579 66.5016 70.8534 67.6885 69.8394L74.3086 64.1841L75.4766 65.5513Z" fill="#D5D5D5"/>
<path d="M81.1905 67.4795L74.5704 73.1348C73.8045 73.7891 73.3834 74.7602 73.4278 75.7666L73.8291 84.8672L72.0323 84.9473L71.6309 75.8457C71.5622 74.2862 72.2155 72.7816 73.4024 71.7676L80.0225 66.1123L81.1905 67.4795Z" fill="#D5D5D5"/>
<path d="M86.8633 69.2373L80.5283 75.1768C79.8683 75.7957 79.4946 76.6606 79.4951 77.5654L79.501 87.1992L77.7031 87.2012L77.6963 77.5664C77.6955 76.1643 78.2761 74.8244 79.2988 73.8652L85.6328 67.9248L86.8633 69.2373Z" fill="#D5D5D5"/>
<path d="M109.989 62.3569L109.979 62.7515L98.0693 73.1011L96.8896 71.7437L108.203 61.9106L109.178 27.7554L99.2939 34.853L98.2451 33.3921L111.08 24.1772L109.989 62.3569Z" fill="#D5D5D5"/>
<path d="M18.6019 36.9239L18.3345 19.0403L20.6514 19.7109L29.7069 35.5248L28.5411 35.4501L28.339 21.9361L31.2839 22.7885L31.5513 40.6722L29.2129 39.9953L20.2862 24.1224L21.3648 24.1719L21.5684 37.7825L18.6019 36.9239Z" fill="white"/>
<path d="M33.4946 41.2867L33.2272 23.4043L40.0487 25.3788C41.1025 25.6838 42.0147 26.1505 42.7863 26.7804C43.5579 27.4103 44.1545 28.1605 44.5772 29.0314C44.9999 29.9034 45.2196 30.8582 45.2351 31.8989C45.2476 32.7314 45.0601 33.4461 44.6746 34.0434C44.2882 34.6404 43.6648 35.0387 42.8054 35.235L42.7828 33.7223C43.5821 34.2888 44.2163 34.8869 44.6854 35.5164C45.1546 36.146 45.4881 36.7929 45.685 37.4546C45.8819 38.1174 45.9848 38.7847 45.9948 39.4558C46.0205 41.1686 45.5315 42.3611 44.5281 43.0343C43.5247 43.7076 42.121 43.7837 40.3161 43.2613L33.4946 41.2867ZM36.2984 31.1999L40.3043 32.3594C40.9107 32.5349 41.3911 32.4792 41.7464 32.1914C42.1017 31.9035 42.2748 31.4486 42.2654 30.8242C42.2561 30.1997 42.0681 29.6516 41.7014 29.1797C41.3347 28.7066 40.8487 28.3836 40.2422 28.2081L36.2363 27.0486L36.2984 31.1999ZM36.419 39.2648L40.5768 40.4683C41.3422 40.6899 41.9482 40.6308 42.3957 40.2893C42.8432 39.9489 43.0616 39.387 43.0499 38.6022C43.0382 37.8186 42.8009 37.1203 42.3392 36.5087C41.8774 35.8972 41.2633 35.4805 40.4989 35.2592L36.3411 34.0558L36.419 39.2648Z" fill="white"/>
<path d="M49.0642 29.362L46.8591 28.7237L46.9693 36.0926L49.1744 36.7308L49.0642 29.362Z" fill="#00C2E0"/>
<path d="M45.6666 26.7977L49.0473 25.363L49.0872 28.0324L45.7048 29.3533L45.6666 26.7977Z" fill="#00C2E0"/>
<path d="M90.2103 62.9409L88.1762 62.319L84.7743 55.8931V61.279L82.7402 60.6571V51.9253L84.7743 52.5472L88.1762 58.998V53.5872L90.2103 54.2091V62.9409Z" fill="#D5D5D5"/>
<path d="M79.1681 58.0226L76.0516 57.0698L75.5521 58.4594L73.4229 57.8085L76.4442 50.0004L78.7994 50.7204L81.8207 60.3759L79.6677 59.7177L79.1681 58.0226ZM78.6447 56.2207L77.6099 52.7076L76.5869 55.5916L78.6447 56.2207Z" fill="#D5D5D5"/>
<path d="M70.3358 55.223L73.0003 56.0376V57.6795L68.3018 56.243V47.5112L70.3358 48.1331V55.223Z" fill="#D5D5D5"/>
<path d="M67.2427 49.9984C67.2427 50.5042 67.1317 50.9347 66.9097 51.2897C66.6876 51.6364 66.3466 51.868 65.8867 51.9844C65.4267 52.1009 64.8558 52.0549 64.1738 51.8464L62.9129 51.4609V54.5954L60.8789 53.9735V45.2417L64.1738 46.2491C64.8399 46.4527 65.403 46.7451 65.8629 47.1262C66.3228 47.5073 66.6678 47.9444 66.8978 48.4376C67.1277 48.9309 67.2427 49.4511 67.2427 49.9984ZM64.0192 50.1075C64.4077 50.2263 64.6972 50.2194 64.8875 50.0868C65.0778 49.9543 65.173 49.7139 65.173 49.3656C65.173 49.0173 65.0778 48.7188 64.8875 48.4698C64.6972 48.2209 64.4077 48.0371 64.0192 47.9183L62.9129 47.5801V49.7692L64.0192 50.1075Z" fill="#D5D5D5"/>
</svg>
