<svg width="57" height="94" viewBox="0 0 57 94" fill="none" xmlns="http://www.w3.org/2000/svg">
<path d="M54.5215 10.9189C54.5213 5.81627 50.384 1.67969 45.2812 1.67969H10.9189C5.8164 1.67988 1.67989 5.8164 1.67969 10.9189V82.3008C1.67969 87.4035 5.81627 91.5408 10.9189 91.541H45.2812C50.3841 91.541 54.5215 87.4036 54.5215 82.3008V10.9189ZM56.2012 82.3008C56.2012 88.3314 51.3119 93.2207 45.2812 93.2207H10.9189C4.88848 93.2205 0 88.3313 0 82.3008V10.9189C0.000203067 4.88861 4.88861 0.000196363 10.9189 0H45.2812C51.3118 0 56.201 4.88848 56.2012 10.9189V82.3008Z" fill="white"/>
<path d="M16.9263 33.505C17.422 32.5604 17.0585 31.3927 16.1139 30.8968C15.1694 30.4011 14.0017 30.7648 13.5057 31.7092L12.2311 34.1371L15.6516 35.9329L16.9263 33.505ZM16.3588 38.2014L9.96308 34.8435L12.0186 30.9284C12.9458 29.1626 15.1287 28.4827 16.8947 29.4097C18.6607 30.3368 19.3413 32.5202 18.4143 34.2863L16.3588 38.2014Z" fill="white"/>
<path d="M14.2894 40.3359C13.5778 41.6913 11.9022 42.2132 10.5469 41.5016C9.19151 40.79 8.66963 39.1144 9.38121 37.7591L11.0462 34.5877L15.9544 37.1646L14.2894 40.3359Z" fill="#009FB7"/>
<path d="M10.1255 38.1498C9.62974 39.0944 9.99329 40.262 10.9378 40.7579C11.8823 41.2536 13.05 40.89 13.546 39.9456L14.8207 37.5177L11.4002 35.7219L10.1255 38.1498ZM10.6929 33.4534L17.0887 36.8113L15.0332 40.7264C14.1059 42.4922 11.923 43.1721 10.157 42.2451C8.39104 41.3179 7.71041 39.1346 8.63744 37.3685L10.6929 33.4534Z" fill="white"/>
<path d="M16.9263 52.6984C17.422 51.7538 17.0585 50.5861 16.1139 50.0902C15.1694 49.5945 14.0017 49.9582 13.5057 50.9026L12.2311 53.3305L15.6516 55.1263L16.9263 52.6984ZM16.3588 57.3947L9.96308 54.0369L12.0186 50.1218C12.9458 48.3559 15.1287 47.676 16.8947 48.603C18.6607 49.5302 19.3413 51.7136 18.4143 53.4796L16.3588 57.3947Z" fill="white"/>
<path d="M10.1255 57.3431C9.62974 58.2877 9.99329 59.4554 10.9378 59.9513C11.8823 60.447 13.05 60.0833 13.546 59.139L14.8207 56.711L11.4002 54.9152L10.1255 57.3431ZM10.6929 52.6468L17.0887 56.0046L15.0332 59.9197C14.1059 61.6856 11.923 62.3655 10.157 61.4385C8.39104 60.5113 7.71041 58.3279 8.63744 56.5619L10.6929 52.6468Z" fill="white"/>
<path d="M16.9263 71.8063C17.422 70.8617 17.0585 69.694 16.1139 69.1981C15.1694 68.7024 14.0017 69.0661 13.5057 70.0105L12.2311 72.4384L15.6516 74.2342L16.9263 71.8063ZM16.3588 76.5026L9.96308 73.1448L12.0186 69.2297C12.9458 67.4638 15.1287 66.7839 16.8947 67.7109C18.6607 68.6381 19.3413 70.8215 18.4143 72.5875L16.3588 76.5026Z" fill="white"/>
<path d="M10.1255 76.451C9.62974 77.3956 9.99329 78.5633 10.9378 79.0592C11.8823 79.5549 13.05 79.1912 13.546 78.2469L14.8207 75.8189L11.4002 74.0231L10.1255 76.451ZM10.6929 71.7547L17.0887 75.1126L15.0332 79.0277C14.1059 80.7935 11.923 81.4734 10.157 80.5464C8.39104 79.6192 7.71041 77.4358 8.63744 75.6698L10.6929 71.7547Z" fill="white"/>
<path d="M45.5371 18.7158C45.5369 17.0326 44.1716 15.668 42.4883 15.668C40.8051 15.6681 39.4406 17.0327 39.4404 18.7158C39.4404 19.1797 39.0645 19.5557 38.6006 19.5557C38.1367 19.5557 37.7607 19.1797 37.7607 18.7158C37.7609 16.1049 39.8773 13.9884 42.4883 13.9883C45.0994 13.9883 47.2166 16.1048 47.2168 18.7158C47.2168 19.1796 46.8407 19.5555 46.377 19.5557C45.9131 19.5557 45.5371 19.1797 45.5371 18.7158Z" fill="white"/>
<path d="M43.8789 10.5376C43.8787 9.77014 43.2558 9.14795 42.4883 9.14795C41.721 9.14817 41.0989 9.77028 41.0986 10.5376C41.0986 11.3051 41.7208 11.928 42.4883 11.9282C43.2559 11.9282 43.8789 11.3052 43.8789 10.5376ZM45.5586 10.5376C45.5586 12.233 44.1837 13.6079 42.4883 13.6079C40.793 13.6077 39.4189 12.2329 39.4189 10.5376C39.4192 8.84249 40.7932 7.46848 42.4883 7.46826C44.1836 7.46826 45.5584 8.84235 45.5586 10.5376Z" fill="white"/>
<path d="M43.5215 34.9058V36.5854H24.6514V34.9058H43.5215Z" fill="white"/>
<path d="M42.21 54.3926V56.0723H24.6514V54.3926H42.21Z" fill="white"/>
<path d="M47.8467 73.8799V75.5596H24.6514V73.8799H47.8467Z" fill="white"/>
</svg>
