<svg width="60" height="60" viewBox="0 0 60 60" fill="none" xmlns="http://www.w3.org/2000/svg">
<rect x="45.5806" y="26.3443" width="4.5" height="13.5" fill="#008498"/>
<rect x="54.2773" y="30.8443" width="4.5" height="12.75" transform="rotate(90 54.2773 30.8443)" fill="#008498"/>
<path d="M30.915 8.86979C31.6996 7.95101 31.5908 6.57003 30.6721 5.78541C29.7533 5.0008 28.3723 5.10958 27.5877 6.02839L24.5356 9.60248C23.751 10.5213 23.8597 11.9022 24.7785 12.6869C25.6973 13.4714 27.0783 13.3627 27.8629 12.4439L30.915 8.86979ZM29.0036 13.418C27.681 14.9667 25.3532 15.1501 23.8045 13.8275C22.2557 12.505 22.0723 10.1772 23.3949 8.62839L26.447 5.0543C27.7696 3.50551 30.0974 3.32214 31.6462 4.64473C33.1949 5.96733 33.3783 8.29512 32.0557 9.84388L29.0036 13.418Z" fill="#008498"/>
<path d="M41.5318 45.0713C41.3219 43.8814 40.1871 43.087 38.9973 43.2969C37.8074 43.5069 37.013 44.6417 37.2229 45.8315L38.0395 50.46C38.2495 51.6498 39.3843 52.4443 40.5741 52.2343C41.7639 52.0244 42.5584 50.8896 42.3485 49.6997L41.5318 45.0713ZM43.8256 49.4391C44.1795 51.4448 42.8404 53.3576 40.8347 53.7115C38.8291 54.0654 36.9162 52.7263 36.5623 50.7206L35.7457 46.0921C35.3919 44.0865 36.731 42.1736 38.7366 41.8197C40.7423 41.4659 42.6552 42.805 43.009 44.8106L43.8256 49.4391Z" fill="#008498"/>
<path d="M16.9364 48.9043C18.142 48.8238 19.054 47.7811 18.9734 46.5756C18.8928 45.37 17.8502 44.458 16.6446 44.5386L11.9551 44.852C10.7496 44.9326 9.83759 45.9753 9.91817 47.1808C9.99878 48.3863 11.0414 49.2984 12.247 49.2178L16.9364 48.9043ZM12.347 50.7145C10.3149 50.8503 8.55737 49.313 8.42151 47.2809C8.28568 45.2487 9.82298 43.4912 11.8551 43.3554L16.5446 43.0419C18.5767 42.9061 20.3342 44.4434 20.4701 46.4755C20.6059 48.5076 19.0686 50.2652 17.0365 50.401L12.347 50.7145Z" fill="#008498"/>
<path d="M33.1886 37.9402C34.2646 36.6802 34.1154 34.7866 32.8554 33.7107C31.5955 32.6347 29.7018 32.7839 28.6259 34.0438L24.7295 38.6066C23.6536 39.8665 23.8028 41.7601 25.0627 42.8361C26.3227 43.912 28.2163 43.7629 29.2923 42.5029L33.1886 37.9402ZM30.4329 43.477C28.819 45.3669 25.9786 45.5907 24.0886 43.9768C22.1987 42.3629 21.9749 39.5224 23.5889 37.6325L27.4852 33.0697C29.0991 31.1798 31.9396 30.956 33.8295 32.57C35.7195 34.1839 35.9432 37.0243 34.3293 38.9143L30.4329 43.477Z" fill="#008498"/>
<path d="M49.5636 20.2064C50.9393 19.9322 51.8322 18.5945 51.558 17.2188C51.2838 15.8431 49.9461 14.9501 48.5704 15.2244L34.6586 17.9977C33.2829 18.2719 32.3899 19.6096 32.6642 20.9853C32.9385 22.3609 34.2761 23.254 35.6518 22.9797L49.5636 20.2064ZM35.9451 24.4508C33.7569 24.887 31.6294 23.4666 31.1931 21.2786C30.7569 19.0904 32.1772 16.9628 34.3654 16.5266L48.2772 13.7533C50.4653 13.3171 52.5929 14.7374 53.0291 16.9255C53.4652 19.1136 52.045 21.2413 49.8569 21.6775L35.9451 24.4508Z" fill="#008498"/>
<path d="M19.4944 27.5013C20.987 28.2205 22.78 27.5934 23.4992 26.1008C24.2183 24.6081 23.5913 22.8151 22.0986 22.096L9.55919 16.0545C8.06654 15.3354 6.27353 15.9624 5.55438 17.455C4.83522 18.9477 5.46226 20.7407 6.95491 21.4598L19.4944 27.5013ZM6.30384 22.8112C4.06487 21.7325 3.12431 19.0429 4.20304 16.804C5.28177 14.565 7.97129 13.6244 10.2103 14.7032L22.7497 20.7446C24.9887 21.8234 25.9292 24.5129 24.8505 26.7519C23.7718 28.9908 21.0823 29.9314 18.8433 28.8527L6.30384 22.8112Z" fill="#008498"/>
</svg>
