<svg width="60" height="60" viewBox="0 0 60 60" fill="none" xmlns="http://www.w3.org/2000/svg">
<path d="M29.6477 3.1903C31.656 2.57165 34.7085 2.82249 39.2051 5.60217C40.8433 6.61491 42.3337 7.71837 43.1953 9.24084C43.9862 10.6383 44.1964 12.2928 43.7014 14.3671C44.7444 14.6242 46.2383 15.1347 47.469 16.2633C49.0512 17.7143 50.0771 20.0642 49.4553 23.7831C49.9756 24.1663 50.4052 24.7117 50.7415 25.3116C51.1881 26.1086 51.5081 27.0689 51.6643 28.0663C51.9468 29.8697 51.7132 31.9674 50.5027 33.4664C50.8885 34.4209 51.5038 36.156 51.5039 38.0485C51.5039 39.1786 51.2857 40.3905 50.6521 41.5319C50.0792 42.5638 49.1858 43.5004 47.8821 44.2609C47.9639 45.6128 47.6908 47.391 46.9058 49.0172C46.038 50.8147 44.5147 52.4796 42.104 53.1327C41.2706 54.3295 40.4266 55.2436 39.4153 55.8903C38.3292 56.5847 37.1099 56.9358 35.6235 57.0651C33.5166 57.2482 31.5657 56.3336 30.0608 55.1974C28.5551 54.0605 27.3916 52.6245 26.8513 51.577L26.7678 51.4152V5.46593L26.8513 5.30407L27.5178 5.64904C26.8517 5.30444 26.8517 5.30326 26.8521 5.3026L26.8528 5.30114C26.8533 5.3002 26.8544 5.29929 26.855 5.29821C26.8561 5.29607 26.8572 5.29356 26.8586 5.29089C26.8616 5.28528 26.8653 5.27821 26.8696 5.27038C26.8785 5.2545 26.8902 5.23387 26.9048 5.20959C26.9339 5.16101 26.9754 5.09655 27.0293 5.01989C27.137 4.86677 27.2972 4.66368 27.5186 4.44421C27.9628 4.00378 28.6524 3.49692 29.6477 3.1903ZM38.4163 6.87804C34.1246 4.22501 31.5304 4.17975 30.0894 4.62365C29.3603 4.84825 28.8747 5.21238 28.5747 5.50988C28.4325 5.65089 28.3322 5.77753 28.2678 5.8673V51.0438C28.7327 51.8667 29.698 53.0435 30.9646 53.9999C32.3132 55.0182 33.8997 55.7095 35.4939 55.5709C36.8091 55.4566 37.7777 55.1574 38.6074 54.6268C39.4453 54.091 40.1992 53.2828 41.0266 52.056L41.1921 51.8107L41.48 51.744C43.5138 51.2746 44.8014 49.9265 45.5552 48.3653C46.3194 46.7824 46.5014 45.0402 46.3455 43.9488L46.27 43.4208L46.7446 43.1761C48.0597 42.4982 48.8611 41.6669 49.3403 40.8038C49.8227 39.935 50.0039 38.9876 50.0039 38.0485C50.0038 36.1468 49.2651 34.3807 48.9397 33.6114L48.7427 33.1456L49.1001 32.7882C50.1336 31.7545 50.4517 30.0164 50.1826 28.2985C50.0506 27.4557 49.7829 26.6685 49.4333 26.0448C49.0774 25.4097 48.6732 25.0075 48.304 24.8326L47.7744 24.5814L47.8901 24.0065C48.6169 20.4007 47.6534 18.4673 46.4553 17.3685C45.1965 16.2141 43.5364 15.8434 42.6292 15.6678L41.8096 15.5089L42.0549 14.7106C42.7208 12.5466 42.5245 11.1 41.8901 9.97912C41.2293 8.81161 40.0296 7.8754 38.4163 6.87804ZM28.1807 5.99987C28.1809 5.99936 28.1816 5.99869 28.1821 5.99767C28.1824 5.99713 28.1825 5.99615 28.1829 5.99548L28.1836 5.99474L28.1829 5.99401C28.1814 5.9966 28.1812 5.99892 28.1807 5.99987Z" fill="#008498"/>
<path d="M29.6477 3.1903C31.656 2.57165 34.7085 2.82249 39.2051 5.60217C40.8433 6.61491 42.3337 7.71837 43.1953 9.24084C43.9862 10.6383 44.1964 12.2928 43.7014 14.3671C44.7444 14.6242 46.2383 15.1347 47.469 16.2633C49.0512 17.7143 50.0771 20.0642 49.4553 23.7831C49.9756 24.1663 50.4052 24.7117 50.7415 25.3116C51.1881 26.1086 51.5081 27.0689 51.6643 28.0663C51.9468 29.8697 51.7132 31.9674 50.5027 33.4664C50.8885 34.4209 51.5038 36.156 51.5039 38.0485C51.5039 39.1786 51.2857 40.3905 50.6521 41.5319C50.0792 42.5638 49.1858 43.5004 47.8821 44.2609C47.9639 45.6128 47.6908 47.391 46.9058 49.0172C46.038 50.8147 44.5147 52.4796 42.104 53.1327C41.2706 54.3295 40.4266 55.2436 39.4153 55.8903C38.3292 56.5847 37.1099 56.9358 35.6235 57.0651C33.5166 57.2482 31.5657 56.3336 30.0608 55.1974C28.5551 54.0605 27.3916 52.6245 26.8513 51.577L26.7678 51.4152V5.46593L26.8513 5.30407L27.5178 5.64904C26.8517 5.30444 26.8517 5.30326 26.8521 5.3026L26.8528 5.30114C26.8533 5.3002 26.8544 5.29929 26.855 5.29821C26.8561 5.29607 26.8572 5.29356 26.8586 5.29089C26.8616 5.28528 26.8653 5.27821 26.8696 5.27038C26.8785 5.2545 26.8902 5.23387 26.9048 5.20959C26.9339 5.16101 26.9754 5.09655 27.0293 5.01989C27.137 4.86677 27.2972 4.66368 27.5186 4.44421C27.9628 4.00378 28.6524 3.49692 29.6477 3.1903ZM38.4163 6.87804C34.1246 4.22501 31.5304 4.17975 30.0894 4.62365C29.3603 4.84825 28.8747 5.21238 28.5747 5.50988C28.4325 5.65089 28.3322 5.77753 28.2678 5.8673V51.0438C28.7327 51.8667 29.698 53.0435 30.9646 53.9999C32.3132 55.0182 33.8997 55.7095 35.4939 55.5709C36.8091 55.4566 37.7777 55.1574 38.6074 54.6268C39.4453 54.091 40.1992 53.2828 41.0266 52.056L41.1921 51.8107L41.48 51.744C43.5138 51.2746 44.8014 49.9265 45.5552 48.3653C46.3194 46.7824 46.5014 45.0402 46.3455 43.9488L46.27 43.4208L46.7446 43.1761C48.0597 42.4982 48.8611 41.6669 49.3403 40.8038C49.8227 39.935 50.0039 38.9876 50.0039 38.0485C50.0038 36.1468 49.2651 34.3807 48.9397 33.6114L48.7427 33.1456L49.1001 32.7882C50.1336 31.7545 50.4517 30.0164 50.1826 28.2985C50.0506 27.4557 49.7829 26.6685 49.4333 26.0448C49.0774 25.4097 48.6732 25.0075 48.304 24.8326L47.7744 24.5814L47.8901 24.0065C48.6169 20.4007 47.6534 18.4673 46.4553 17.3685C45.1965 16.2141 43.5364 15.8434 42.6292 15.6678L41.8096 15.5089L42.0549 14.7106C42.7208 12.5466 42.5245 11.1 41.8901 9.97912C41.2293 8.81161 40.0296 7.8754 38.4163 6.87804ZM28.1807 5.99987C28.1809 5.99936 28.1816 5.99869 28.1821 5.99767C28.1824 5.99713 28.1825 5.99615 28.1829 5.99548L28.1836 5.99474L28.1829 5.99401C28.1814 5.9966 28.1812 5.99892 28.1807 5.99987Z" fill="#008498"/>
<path d="M25.2886 3.1903C23.2803 2.57165 20.2277 2.82249 15.7312 5.60217C14.093 6.61491 12.6026 7.71837 11.741 9.24084C10.9501 10.6383 10.7399 12.2928 11.2349 14.3671C10.1919 14.6242 8.69793 15.1347 7.46729 16.2633C5.88509 17.7143 4.85921 20.0642 5.48096 23.7831C4.96072 24.1663 4.53109 24.7117 4.19482 25.3116C3.74815 26.1086 3.4282 27.0689 3.27197 28.0663C2.98951 29.8697 3.22313 31.9674 4.43359 33.4664C4.04779 34.4209 3.43245 36.156 3.43237 38.0485C3.43237 39.1786 3.65054 40.3905 4.28418 41.5319C4.8571 42.5638 5.75048 43.5004 7.0542 44.2609C6.97235 45.6128 7.24544 47.391 8.03052 49.0172C8.89829 50.8147 10.4216 52.4796 12.8323 53.1327C13.6656 54.3295 14.5097 55.2436 15.521 55.8903C16.6071 56.5847 17.8264 56.9358 19.3127 57.0651C21.4197 57.2482 23.3705 56.3336 24.8755 55.1974C26.3812 54.0605 27.5447 52.6245 28.085 51.577L28.1685 51.4152V5.46593L28.085 5.30407L27.4185 5.64904C28.0846 5.30444 28.0846 5.30326 28.0842 5.3026L28.0835 5.30114C28.083 5.3002 28.0819 5.29929 28.0813 5.29821C28.0802 5.29607 28.0791 5.29356 28.0776 5.29089C28.0746 5.28528 28.071 5.27821 28.0667 5.27038C28.0578 5.2545 28.0461 5.23387 28.0315 5.20959C28.0023 5.16101 27.9609 5.09655 27.907 5.01989C27.7993 4.86677 27.639 4.66368 27.4177 4.44421C26.9735 4.00378 26.2839 3.49692 25.2886 3.1903ZM16.52 6.87804C20.8117 4.22501 23.4059 4.17975 24.8469 4.62365C25.576 4.84825 26.0616 5.21238 26.3616 5.50988C26.5038 5.65089 26.6041 5.77753 26.6685 5.8673V51.0438C26.2036 51.8667 25.2383 53.0435 23.9717 53.9999C22.623 55.0182 21.0365 55.7095 19.4424 55.5709C18.1272 55.4566 17.1586 55.1574 16.3289 54.6268C15.4909 54.091 14.7371 53.2828 13.9097 52.056L13.7441 51.8107L13.4563 51.744C11.4225 51.2746 10.1348 49.9265 9.3811 48.3653C8.61692 46.7824 8.43491 45.0402 8.59082 43.9488L8.66626 43.4208L8.19165 43.1761C6.87661 42.4982 6.07514 41.6669 5.59595 40.8038C5.11362 39.935 4.93237 38.9876 4.93237 38.0485C4.93246 36.1468 5.67114 34.3807 5.99658 33.6114L6.1936 33.1456L5.83618 32.7882C4.80266 31.7545 4.48459 30.0164 4.75366 28.2985C4.88566 27.4557 5.15337 26.6685 5.50293 26.0448C5.85887 25.4097 6.26308 25.0075 6.63232 24.8326L7.16187 24.5814L7.04614 24.0065C6.3194 20.4007 7.28286 18.4673 8.48096 17.3685C9.73976 16.2141 11.3999 15.8434 12.3071 15.6678L13.1267 15.5089L12.8813 14.7106C12.2155 12.5466 12.4118 11.1 13.0461 9.97912C13.7069 8.81161 14.9067 7.8754 16.52 6.87804ZM26.7556 5.99987C26.7553 5.99936 26.7547 5.99869 26.7542 5.99767C26.7539 5.99713 26.7538 5.99615 26.7534 5.99548L26.7527 5.99474L26.7534 5.99401C26.7549 5.9966 26.7551 5.99892 26.7556 5.99987Z" fill="#008498"/>
<path d="M34.4729 29.0618C34.5751 29.4631 34.3325 29.8713 33.9312 29.9736C33.5299 30.076 33.1212 29.8336 33.0188 29.4323C32.626 27.8924 32.5408 25.5013 34.3846 23.0208C35.9482 20.9172 37.8552 20.2129 39.3796 20.0556C40.1323 19.978 40.7848 20.0332 41.2509 20.1086C41.4846 20.1464 41.6734 20.1902 41.8075 20.225C41.8745 20.2423 41.928 20.2575 41.9667 20.2692C41.9861 20.275 42.002 20.28 42.0138 20.2838C42.0196 20.2857 42.0246 20.2873 42.0286 20.2886C42.0306 20.2893 42.0325 20.29 42.034 20.2905L42.037 20.2913C42.037 20.2926 42.0279 20.321 41.7955 21.0016L42.038 20.2916C42.4297 20.4255 42.6388 20.8516 42.5052 21.2434C42.3715 21.6347 41.9465 21.8444 41.5551 21.7121L41.5561 21.7123C41.5559 21.7123 41.555 21.7116 41.5537 21.7112C41.5503 21.7101 41.5431 21.7079 41.5329 21.7048C41.5121 21.6985 41.4776 21.6889 41.431 21.6768C41.337 21.6524 41.1938 21.6194 41.0112 21.5898C40.6446 21.5306 40.1274 21.4863 39.5331 21.5476C38.3635 21.6683 36.8659 22.1973 35.5888 23.9152C34.077 25.9491 34.163 27.847 34.4729 29.0618Z" fill="#008498"/>
<path d="M33.7788 37.1353L33.7033 37.1353C33.3238 37.1144 33.0144 36.8087 32.9964 36.4208C32.9774 36.0072 33.2975 35.6565 33.7112 35.6374L33.7455 36.3865C33.7108 35.6373 33.7115 35.637 33.7118 35.637L33.7128 35.6373L33.7145 35.6372C33.7157 35.6371 33.7172 35.6373 33.7188 35.6372C33.7219 35.6371 33.7257 35.6366 33.7302 35.6365C33.7394 35.6362 33.7517 35.636 33.7663 35.6358C33.7952 35.6354 33.8346 35.6352 33.8835 35.6361C33.9813 35.638 34.1181 35.6442 34.2868 35.6602C34.6237 35.6924 35.0919 35.7649 35.6388 35.9254C36.736 36.2474 38.1493 36.9239 39.4485 38.3299C40.7892 39.7808 41.1721 41.3756 41.2168 42.5972C41.239 43.2051 41.1779 43.7233 41.1106 44.0922C41.0769 44.2772 41.0413 44.4265 41.013 44.5325C40.999 44.5854 40.9866 44.6277 40.9772 44.6585L40.962 44.7081C40.9615 44.7097 40.9608 44.7112 40.9604 44.7125L40.9596 44.7155C40.959 44.7157 40.941 44.7095 40.2489 44.4755L40.9589 44.7158C40.8263 45.108 40.4011 45.3186 40.0089 45.1862C39.6166 45.0536 39.4056 44.6279 39.5381 44.2356L39.5376 44.2376C39.5383 44.2355 39.5397 44.2305 39.5419 44.2232C39.5465 44.208 39.5544 44.1815 39.5639 44.1459C39.5828 44.0747 39.609 43.9647 39.6349 43.823C39.6868 43.5383 39.7352 43.1311 39.7178 42.6527C39.683 41.701 39.3901 40.4772 38.3464 39.3478C37.2613 38.1735 36.0986 37.6235 35.2159 37.3644C34.7731 37.2345 34.4001 37.1776 34.1437 37.1531C34.0158 37.1409 33.9174 37.1372 33.8547 37.136C33.8234 37.1354 33.8011 37.1355 33.7884 37.1357L33.7782 37.1357L33.7788 37.1353Z" fill="#008498"/>
<path d="M15.5669 45.1491L15.5739 45.2243C15.5882 45.6042 15.3126 45.9406 14.928 45.9944C14.5179 46.0517 14.1391 45.7654 14.0817 45.3553L14.8244 45.2517C14.0816 45.3557 14.0813 45.3551 14.0813 45.3547L14.0814 45.3537L14.0812 45.3521C14.081 45.3509 14.081 45.3493 14.0808 45.3478C14.0804 45.3447 14.0796 45.3409 14.079 45.3365C14.0779 45.3273 14.0766 45.3151 14.075 45.3007C14.0719 45.2718 14.068 45.2327 14.0644 45.1839C14.0572 45.0863 14.0507 44.9495 14.0511 44.7801C14.0519 44.4416 14.0806 43.9687 14.1897 43.4093C14.4087 42.287 14.9513 40.8171 16.2308 39.3932C17.5512 37.9237 19.1036 37.3946 20.3158 37.2369C20.919 37.1584 21.4406 37.1712 21.8142 37.204C22.0015 37.2205 22.1535 37.2421 22.2616 37.2604C22.3156 37.2695 22.3589 37.2779 22.3905 37.2844L22.4412 37.2949C22.4428 37.2953 22.4444 37.2959 22.4457 37.2962L22.4488 37.2967C22.449 37.2972 22.4446 37.3157 22.2758 38.0266L22.4492 37.2973C22.852 37.393 23.1011 37.7968 23.0056 38.1996C22.9099 38.6025 22.5056 38.852 22.1027 38.7565L22.1048 38.7568C22.1026 38.7563 22.0975 38.7554 22.09 38.7538C22.0745 38.7507 22.0474 38.7453 22.0111 38.7392C21.9384 38.7269 21.8264 38.711 21.6829 38.6984C21.3947 38.6731 20.9848 38.6626 20.51 38.7243C19.5657 38.8472 18.3742 39.2523 17.3464 40.3961C16.2778 41.5854 15.8379 42.7941 15.6618 43.697C15.5735 44.1499 15.5514 44.5267 15.5508 44.7842C15.5505 44.9127 15.5559 45.0109 15.5606 45.0735C15.5629 45.1047 15.565 45.127 15.5664 45.1396L15.5674 45.1497L15.5669 45.1491Z" fill="#008498"/>
<path d="M17.4401 19.522C17.7027 19.2019 18.1752 19.1553 18.4955 19.4178L18.0204 19.9976C18.4669 19.453 18.4941 19.42 18.496 19.4182L18.5027 19.424C18.5058 19.4266 18.5102 19.4296 18.5148 19.4335C18.524 19.4413 18.536 19.4517 18.5508 19.4647C18.5806 19.4909 18.6217 19.5279 18.6713 19.5749C18.7704 19.6689 18.9055 19.8044 19.0607 19.98C19.3706 20.3306 19.7652 20.8468 20.1123 21.5158C20.8127 22.8657 21.3109 24.8297 20.5444 27.256C19.7733 29.6964 18.2196 30.9238 16.8445 31.5211C16.1666 31.8155 15.5391 31.9539 15.0801 32.02C14.8498 32.0531 14.6591 32.0683 14.5227 32.075C14.4547 32.0784 14.4 32.0801 14.3601 32.0805C14.3403 32.0807 14.324 32.0804 14.3118 32.0803C14.3058 32.0802 14.3003 32.0804 14.2962 32.0804C14.2942 32.0803 14.2921 32.0803 14.2905 32.0803L14.2884 32.0804L14.2879 32.0799C14.2875 32.0799 14.2863 32.0797 14.3057 31.3299L14.2869 32.08C13.8728 32.0693 13.5454 31.7246 13.5561 31.3105C13.567 30.8976 13.9096 30.5717 14.3221 30.5805L14.3241 30.5804C14.3276 30.5804 14.3349 30.5805 14.3454 30.5804C14.3666 30.5802 14.4018 30.5795 14.449 30.5771C14.5441 30.5725 14.6879 30.5615 14.8666 30.5358C15.2256 30.4841 15.7181 30.3745 16.2468 30.1449C17.2852 29.6939 18.4929 28.7707 19.1142 26.8041C19.7399 24.8234 19.3335 23.2712 18.7812 22.2068C18.5021 21.6687 18.1836 21.2528 17.9367 20.9735C17.8138 20.8343 17.7098 20.7304 17.6393 20.6636C17.6042 20.6302 17.5774 20.6062 17.561 20.5918L17.5444 20.5774C17.2244 20.3147 17.1775 19.8422 17.4401 19.522Z" fill="#008498"/>
<path d="M26.1584 15.1519C25.3424 14.4798 24.2181 13.9539 22.8391 14.1038C22.4273 14.1486 22.13 14.5189 22.1748 14.9307C22.2197 15.3423 22.5893 15.6397 23.0009 15.595C23.8778 15.4997 24.6129 15.8223 25.2048 16.3099C25.8076 16.8064 26.2202 17.4434 26.4045 17.8538C26.5741 18.2316 27.0177 18.4004 27.3955 18.231C27.7733 18.0614 27.9423 17.6172 27.7727 17.2393C27.5074 16.6485 26.9634 15.8149 26.1584 15.1519Z" fill="#008498"/>
<path d="M33.8019 43.5986C34.1553 43.8146 34.2669 44.276 34.051 44.6295C33.835 44.9828 33.3735 45.0943 33.0201 44.8785C32.2721 44.4214 31.0807 44.3843 30.06 44.8955C29.0863 45.3831 28.314 46.3495 28.3395 47.8787C28.3463 48.2927 28.0163 48.6339 27.6023 48.6408C27.1882 48.6477 26.8471 48.3176 26.8401 47.9036C26.8043 45.7547 27.9379 44.28 29.3875 43.5539C30.7902 42.8514 32.5402 42.8275 33.8019 43.5986Z" fill="#008498"/>
<path d="M20.7842 11.1017C20.3825 11.2024 19.975 10.9587 19.8741 10.5571C19.8222 10.3502 19.6672 10.065 19.3737 9.73571C19.0869 9.41401 18.7015 9.0878 18.2533 8.79587C17.3424 8.20266 16.273 7.81405 15.3907 7.81405C14.9767 7.81398 14.6408 7.47845 14.6407 7.06443C14.6407 6.65022 14.9768 6.31431 15.391 6.31431C16.6542 6.31436 18.0063 6.84515 19.0721 7.53927C19.6121 7.89096 20.1038 8.30064 20.4932 8.73744C20.8759 9.16664 21.1963 9.66322 21.3288 10.1917C21.4295 10.5934 21.1857 11.0009 20.7842 11.1017Z" fill="#008498"/>
<path d="M43.3339 35.6208C43.3634 35.2077 43.7223 34.8963 44.1353 34.9256C44.1385 34.9258 44.1453 34.9262 44.1547 34.9266C44.1736 34.9274 44.2043 34.9286 44.2458 34.9291C44.3299 34.9301 44.4578 34.9291 44.6201 34.9195C44.9457 34.9004 45.4056 34.8476 45.9301 34.7137C46.9793 34.4457 48.2611 33.86 49.2715 32.5889C49.5292 32.2648 50.0013 32.2109 50.3255 32.4685C50.6497 32.7262 50.7035 33.1982 50.4459 33.5225C49.1769 35.1188 47.5704 35.8429 46.3013 36.1671C45.6667 36.3291 45.1096 36.3932 44.7083 36.4168C44.5074 36.4287 44.3442 36.4302 44.2282 36.4288C44.1701 36.4281 44.1233 36.4269 44.0898 36.4254C44.073 36.4247 44.0594 36.4241 44.0492 36.4235C44.0441 36.4232 44.0398 36.4223 44.0364 36.4221C44.0349 36.422 44.0336 36.4221 44.0324 36.422L44.0301 36.4218L44.0291 36.4222C43.6161 36.3927 43.3046 36.0338 43.3339 35.6208Z" fill="#008498"/>
<path d="M40.3535 6.86145C40.3298 7.27487 39.9756 7.59116 39.5622 7.56769C39.3599 7.55611 39.0113 7.62713 38.5423 7.83955C38.09 8.04444 37.589 8.35157 37.1038 8.72873C36.108 9.5027 35.3079 10.4671 35.0542 11.2791C34.9307 11.6745 34.5104 11.895 34.115 11.7715C33.7197 11.648 33.4993 11.2276 33.6226 10.8323C34.0087 9.59645 35.0848 8.39892 36.1835 7.54489C36.7454 7.10815 37.3463 6.73465 37.9233 6.47328C38.4836 6.2195 39.0926 6.03855 39.6472 6.07021C40.0606 6.09388 40.3769 6.44807 40.3535 6.86145Z" fill="#008498"/>
<circle cx="47.8357" cy="15.7503" r="9" fill="#008498"/>
<circle cx="47.7419" cy="15.6566" r="6" fill="#F8F8F8"/>
<circle cx="47.7419" cy="15.6566" r="3" fill="#008498"/>
</svg>
