<svg width="64" height="64" viewBox="0 0 64 64" fill="none" xmlns="http://www.w3.org/2000/svg">
<circle cx="32" cy="32" r="32" fill="#262626"/>
<circle cx="45.8038" cy="24.4706" r="4.39216" fill="white"/>
<circle cx="35.7646" cy="34.5098" r="3.13725" fill="white"/>
<circle cx="15.6861" cy="40.7843" r="4.39216" fill="white"/>
<path d="M23.843 48.1831C23.843 46.4489 25.097 44.9714 26.8154 44.7383C29.4843 44.3763 33.4272 43.9216 36.392 43.9216C39.3569 43.9216 43.2997 44.3763 45.9687 44.7383C47.6871 44.9714 48.9411 46.4489 48.9411 48.1831C48.9411 50.4831 46.7786 52.1875 44.5176 51.7655C41.9953 51.2946 38.856 50.8235 36.392 50.8235C33.9281 50.8235 30.7888 51.2946 28.2664 51.7655C26.0055 52.1875 23.843 50.4831 23.843 48.1831Z" stroke="white" stroke-width="2" stroke-miterlimit="10"/>
<path d="M38.1456 10.703C39.1413 12.1228 38.963 14.0525 37.6898 15.23C35.7125 17.0588 32.7454 19.6949 30.318 21.3972C27.8905 23.0995 24.4013 24.991 22.0082 26.2271C20.4675 27.0229 18.5925 26.5331 17.5968 25.1133C16.2762 23.2302 17.0681 20.5931 19.1615 19.6405C21.497 18.5778 24.3378 17.161 26.3552 15.7463C28.3725 14.3316 30.6723 12.1434 32.4671 10.3097C34.0759 8.66596 36.825 8.81988 38.1456 10.703Z" fill="white"/>
</svg>
