<svg width="50" height="50" viewBox="0 0 50 50" fill="none" xmlns="http://www.w3.org/2000/svg">
<ellipse cx="25.0001" cy="24.9996" rx="14.1329" ry="14.1329" fill="#262626"/>
<path d="M33.2071 37.9338C33.2071 33.5163 29.6263 29.9348 25.2088 29.9346C20.7912 29.9346 17.2096 33.5162 17.2096 37.9338C17.2095 38.3246 16.8927 38.6416 16.5018 38.6416C16.1109 38.6416 15.794 38.3246 15.7939 37.9338C15.7939 32.7343 20.0093 28.5189 25.2088 28.5189C30.4082 28.5191 34.6228 32.7344 34.6228 37.9338C34.6227 38.3246 34.3058 38.6416 33.9149 38.6416C33.5242 38.6415 33.2072 38.3246 33.2071 37.9338ZM29.4946 21.1253C29.4946 18.7584 27.5756 16.8397 25.2088 16.8395C22.8419 16.8395 20.923 18.7583 20.923 21.1253C20.9231 23.4922 22.8419 25.4111 25.2088 25.4111C27.5756 25.4109 29.4946 23.4921 29.4946 21.1253ZM30.9103 21.1253C30.9103 24.274 28.3575 26.8266 25.2088 26.8267C22.06 26.8267 19.5074 24.2741 19.5074 21.1253C19.5074 17.9765 22.06 15.4238 25.2088 15.4238C28.3575 15.424 30.9103 17.9766 30.9103 21.1253Z" fill="white"/>
<path d="M38.9315 33.5324C39.136 33.1992 39.5716 33.0947 39.9048 33.2992C40.2378 33.5037 40.3423 33.9394 40.138 34.2725C38.3247 37.2265 35.6706 39.609 32.5084 41.0873C30.2271 42.1538 27.6817 42.75 24.9995 42.75C21.5827 42.75 18.3896 41.7829 15.6805 40.1085C15.348 39.903 15.2446 39.4668 15.4501 39.1343C15.6557 38.8019 16.0918 38.6994 16.4243 38.9048C18.9162 40.445 21.8531 41.3343 24.9995 41.3343C27.4701 41.3343 29.811 40.7857 31.9084 39.8053C34.818 38.4451 37.2622 36.2519 38.9315 33.5324ZM7.25 24.9995C7.25012 24.6087 7.56699 24.2917 7.95784 24.2917C8.3487 24.2917 8.66556 24.6087 8.66569 24.9995C8.66569 27.5327 9.24163 29.9299 10.2694 32.0678C10.4386 32.4201 10.2908 32.8432 9.93851 33.0125C9.58618 33.1819 9.16318 33.0331 8.9938 32.6807C7.87603 30.3556 7.25 27.7496 7.25 24.9995ZM41.3343 24.9995C41.3343 21.8496 40.4426 18.9097 38.8993 16.416C38.6937 16.0836 38.7965 15.6475 39.1288 15.4418C39.4612 15.2361 39.8972 15.3389 40.103 15.6713C41.7808 18.3823 42.75 21.5788 42.75 24.9995C42.75 25.3903 42.4329 25.7071 42.0422 25.7074C41.6512 25.7074 41.3343 25.3905 41.3343 24.9995ZM24.9995 7.25C28.2893 7.25 31.3725 8.14596 34.0153 9.70717C34.3517 9.90608 34.463 10.3403 34.2642 10.6768C34.0652 11.0129 33.6319 11.1242 33.2955 10.9256C30.8648 9.4897 28.0292 8.66569 24.9995 8.66569C21.9121 8.66573 19.0267 9.52145 16.5653 11.0086C16.2307 11.2107 15.7951 11.1035 15.593 10.7689C15.3911 10.4345 15.4984 9.99969 15.8326 9.7975C18.5087 8.18054 21.6467 7.25004 24.9995 7.25Z" fill="#262626"/>
</svg>
