<svg width="50" height="50" viewBox="0 0 50 50" fill="none" xmlns="http://www.w3.org/2000/svg">
<rect x="9.25" y="9.22021" width="31.5" height="31.6141" rx="4.92218" fill="#262626"/>
<path d="M16.9302 9.16553V15.78H15.4941V9.16553H16.9302ZM25.5416 9.16553V15.78H24.1056V9.16553H25.5416ZM34.2783 9.16553V15.78H32.8423V9.16553H34.2783Z" fill="white"/>
<path d="M18.7432 23.1079C18.7432 23.0074 18.6617 22.926 18.5612 22.9259H15.2764C15.1759 22.926 15.0944 23.0074 15.0944 23.1079V26.5778C15.0944 26.6783 15.1759 26.7597 15.2764 26.7597H18.5612C18.6617 26.7597 18.7432 26.6783 18.7432 26.5778V23.1079ZM19.9079 26.5778C19.9079 27.3215 19.3049 27.9244 18.5612 27.9244H15.2764C14.5326 27.9244 13.9297 27.3215 13.9297 26.5778V23.1079C13.9297 22.3642 14.5326 21.7613 15.2764 21.7612H18.5612C19.3049 21.7613 19.9079 22.3642 19.9079 23.1079V26.5778Z" fill="white"/>
<path d="M22.264 22.7037C22.264 22.1832 22.686 21.7613 23.2065 21.7613H27.2564C27.7768 21.7613 28.1988 22.1832 28.1988 22.7037V26.982C28.1988 27.5025 27.7768 27.9244 27.2564 27.9244H23.2065C22.686 27.9244 22.264 27.5025 22.264 26.982V22.7037Z" fill="white"/>
<path d="M30.5549 22.7037C30.5549 22.1832 30.9769 21.7613 31.4974 21.7613H35.5473C36.0678 21.7613 36.4897 22.1832 36.4897 22.7037V26.982C36.4897 27.5025 36.0678 27.9244 35.5473 27.9244H31.4974C30.9769 27.9244 30.5549 27.5025 30.5549 26.982V22.7037Z" fill="white"/>
<path d="M13.9297 31.6945C13.9297 31.174 14.3516 30.752 14.8721 30.752H18.922C19.4425 30.752 19.8645 31.174 19.8645 31.6945V35.9728C19.8645 36.4933 19.4425 36.9152 18.922 36.9152H14.8721C14.3516 36.9152 13.9297 36.4933 13.9297 35.9728V31.6945Z" fill="white"/>
<path d="M22.2206 31.6944C22.2206 31.1739 22.6425 30.752 23.163 30.752H27.2129C27.7334 30.752 28.1554 31.1739 28.1554 31.6944V35.9727C28.1554 36.4932 27.7334 36.9151 27.2129 36.9151H23.163C22.6425 36.9151 22.2206 36.4932 22.2206 35.9727V31.6944Z" fill="white"/>
<path d="M30.5115 31.6944C30.5115 31.1739 30.9334 30.752 31.4539 30.752H35.5038C36.0243 30.752 36.4463 31.1739 36.4463 31.6944V35.9727C36.4463 36.4932 36.0243 36.9151 35.5038 36.9151H31.4539C30.9334 36.9151 30.5115 36.4932 30.5115 35.9727V31.6944Z" fill="white"/>
</svg>
