<svg width="50" height="50" viewBox="0 0 50 50" fill="none" xmlns="http://www.w3.org/2000/svg">
<path d="M28.111 35.875C28.3685 35.3865 28.9731 35.1988 29.4616 35.4561C29.7838 35.6258 30.1252 35.8112 30.3786 35.9648C33.0683 37.5959 35.2181 39.9219 35.3112 43.834L33.3122 43.8818C33.2409 40.881 31.6757 39.0913 29.3415 37.6758C29.1423 37.555 28.8462 37.3922 28.53 37.2256C28.0415 36.9681 27.8538 36.3635 28.111 35.875ZM35.3112 5.86035C35.3112 8.83293 34.0181 10.993 32.155 12.668C30.3358 14.3034 27.9355 15.5097 25.6657 16.6221C23.1888 17.836 20.872 18.9385 19.1814 20.3857C17.549 21.7832 16.5749 23.439 16.6989 25.8027C16.8163 28.0379 17.8945 29.5218 19.5622 30.7217C21.2913 31.9657 23.5537 32.8361 25.9616 33.8369L25.194 35.6836C22.8988 34.7296 20.3595 33.7586 18.3942 32.3447C16.3675 30.8865 14.8587 28.895 14.7019 25.9072C14.538 22.7832 15.8946 20.5663 17.8806 18.8662C19.8081 17.2162 22.3974 15.9967 24.7858 14.8262C27.0951 13.6944 29.2384 12.5999 30.8171 11.1807C32.3518 9.80096 33.3112 8.15119 33.3112 5.86035H35.3112Z" fill="#262626"/>
<path d="M24.3805 28.7404V30.7404H16.9274V28.7404H24.3805ZM23.3258 24.7189V26.7189H16.0778V24.7189H23.3258ZM24.2643 21.2326V23.2326H16.2038V21.2326H24.2643Z" fill="#262626"/>
<path d="M24.6884 16.8054C27.0613 18.0345 29.2808 19.1361 30.9051 20.5876C32.4699 21.9859 33.4214 23.657 33.3016 26.0642C33.193 28.2486 32.223 29.7059 30.7469 30.8738C29.2134 32.0871 27.1849 32.9496 24.9862 33.907C22.8525 34.8361 20.5578 35.8555 18.7977 37.3806C16.983 38.9532 15.7332 41.0638 15.6649 44.0945L17.6639 44.1394C17.7181 41.7334 18.6713 40.1368 20.1073 38.8923C21.5983 37.6004 23.6034 36.6909 25.785 35.7409C27.9017 34.8192 30.2053 33.8518 31.9872 32.4421C33.8265 30.9869 35.1561 29.0282 35.2987 26.1638C35.4544 23.0333 34.1554 20.8097 32.2382 19.0964C30.3805 17.4364 27.8859 16.2087 25.6083 15.029L24.6884 16.8054ZM15.6649 6.11888C15.665 10.0488 18.1415 13.1671 21.4296 14.9939C21.9123 15.2621 22.5217 15.088 22.7899 14.6052C23.0579 14.1226 22.8837 13.5141 22.4012 13.2458C19.549 11.6613 17.6649 9.12022 17.6649 6.11888H15.6649Z" fill="#262626"/>
</svg>
