<svg width="41" height="24" viewBox="0 0 41 24" fill="none" xmlns="http://www.w3.org/2000/svg">
<path d="M0 23.9389V3.01654H3.03151L14.6205 18.518L13.09 18.8267V3.01654H16.9432V23.9389H13.8835L2.46495 8.32429L3.88135 8.0156V23.9389H0Z" fill="#393939"/>
<path d="M19.4846 24V3.07898H28.41C29.7888 3.07898 30.9783 3.31716 31.9799 3.79484C32.9814 4.27253 33.7507 4.95113 34.2891 5.83066C34.8274 6.71151 35.0973 7.75869 35.0973 8.97619C35.0973 9.95019 34.8368 10.8537 34.3186 11.6866C33.799 12.5196 32.972 13.1995 31.8389 13.7224V11.9527C32.878 12.3466 33.6997 12.8336 34.3038 13.4137C34.908 13.9939 35.3336 14.6405 35.5793 15.3511C35.825 16.063 35.9471 16.8121 35.9471 17.5971C35.9471 19.601 35.2812 21.1685 33.9494 22.3008C32.6176 23.4331 30.7716 24 28.41 24H19.4846ZM23.3673 11.1943H28.6087C29.4021 11.1943 30.0345 10.9654 30.5071 10.5064C30.9797 10.0473 31.2159 9.45387 31.2159 8.72338C31.2159 7.99288 30.9797 7.41274 30.5071 6.98295C30.0345 6.55184 29.4021 6.33761 28.6087 6.33761H23.3673V11.1943ZM23.3673 20.6296H28.8074C29.8089 20.6296 30.6064 20.3541 31.2012 19.8006C31.7959 19.2484 32.094 18.5139 32.094 17.5958C32.094 16.679 31.7959 15.9392 31.2012 15.3777C30.6064 14.8162 29.8076 14.5354 28.8074 14.5354H23.3673V20.6296Z" fill="#393939"/>
<path d="M40.1789 4.69299H37.2937V13.3139H40.1789V4.69299Z" fill="#009FB7"/>
<path d="M35.7645 2.8355L40.2353 0V3.12291L35.7645 5.82536V2.8355Z" fill="#009FB7"/>
</svg>
