<svg width="54" height="33" viewBox="0 0 54 33" fill="none" xmlns="http://www.w3.org/2000/svg">
<path d="M0 32.8862V4.98975H4.04201L19.494 25.6584L17.4533 26.07V4.98975H22.5909V32.8862H18.5113L3.2866 12.0668L5.17513 11.6552V32.8862H0Z" fill="#A3A3A3"/>
<path d="M25.9795 32.9679V5.07324H37.88C39.7184 5.07324 41.3044 5.39081 42.6398 6.02773C43.9753 6.66464 45.001 7.56944 45.7188 8.74215C46.4366 9.91662 46.7964 11.3129 46.7964 12.9362C46.7964 14.2349 46.4491 15.4395 45.7582 16.5501C45.0654 17.6607 43.9627 18.5673 42.4519 19.2645V16.9049C43.8374 17.4301 44.9329 18.0794 45.7385 18.8529C46.544 19.6264 47.1115 20.4887 47.4391 21.4361C47.7667 22.3852 47.9295 23.3841 47.9295 24.4308C47.9295 27.1026 47.0417 29.1926 45.2659 30.7023C43.4901 32.2121 41.0288 32.9679 37.88 32.9679H25.9795ZM31.1565 15.8937H38.1449C39.2029 15.8937 40.046 15.5885 40.6761 14.9764C41.3062 14.3644 41.6213 13.5731 41.6213 12.5991C41.6213 11.6251 41.3062 10.8516 40.6761 10.2785C40.046 9.70372 39.2029 9.41809 38.1449 9.41809H31.1565V15.8937ZM31.1565 28.474H38.4099C39.7453 28.474 40.8086 28.1068 41.6016 27.3687C42.3946 26.6325 42.792 25.6532 42.792 24.429C42.792 23.2066 42.3946 22.2202 41.6016 21.4715C40.8086 20.7229 39.7435 20.3485 38.4099 20.3485H31.1565V28.474Z" fill="#A3A3A3"/>
<path d="M53.572 7.2251H49.7251V18.7197H53.572V7.2251Z" fill="#009FB7"/>
<path d="M47.6861 4.74845L53.6471 0.967773V5.13166L47.6861 8.73492V4.74845Z" fill="#009FB7"/>
</svg>
