<svg width="101" height="60" viewBox="0 0 101 60" fill="none" xmlns="http://www.w3.org/2000/svg">
<path d="M0 60V7.56042H7.59815L36.6448 46.4132L32.8087 47.1869V7.56042H42.4662V60H34.7974L6.17812 20.8637L9.72819 20.09V60H0Z" fill="#111111"/>
<path d="M48.8364 59.3784V6.9422H71.2068C74.6627 6.9422 77.6441 7.53917 80.1543 8.73643C82.6646 9.9337 84.5928 11.6345 85.9421 13.839C87.2915 16.0468 87.9679 18.6714 87.9679 21.7229C87.9679 24.1642 87.315 26.4286 86.0162 28.5163C84.7139 30.604 82.6411 32.3082 79.801 33.6189V29.1833C82.4055 30.1705 84.4649 31.3911 85.9791 32.8452C87.4934 34.2992 88.5601 35.92 89.1759 37.7009C89.7917 39.4852 90.0979 41.3628 90.0979 43.3304C90.0979 48.3529 88.4289 52.2816 85.0908 55.1197C81.7527 57.9577 77.1258 59.3784 71.2068 59.3784H48.8364ZM58.5679 27.2824H71.7048C73.6936 27.2824 75.2785 26.7088 76.4629 25.5582C77.6474 24.4076 78.2397 22.9202 78.2397 21.0893C78.2397 19.2584 77.6474 17.8043 76.4629 16.7271C75.2785 15.6466 73.6936 15.1096 71.7048 15.1096H58.5679V27.2824ZM58.5679 50.9309H72.2029C74.7131 50.9309 76.7119 50.2405 78.2026 48.8532C79.6933 47.4692 80.4404 45.6282 80.4404 43.3271C80.4404 41.0293 79.6933 39.175 78.2026 37.7676C76.7119 36.3603 74.7098 35.6566 72.2029 35.6566H58.5679V50.9309Z" fill="#111111"/>
<path d="M100.704 11.7626H93.4727V33.3701H100.704V11.7626Z" fill="#009FB7"/>
<path d="M89.64 7.10689L100.845 0V7.82725L89.64 14.6006V7.10689Z" fill="#009FB7"/>
</svg>
