<svg width="68" height="40" viewBox="0 0 68 40" fill="none" xmlns="http://www.w3.org/2000/svg">
<path d="M0 39.8981V5.02759H5.05251L24.3675 30.8634L21.8167 31.3779V5.02759H28.2386V39.8981H23.1391L4.10824 13.8738L6.46892 13.3594V39.8981H0Z" fill="#A3A3A3"/>
<path d="M32.4744 40.0002V5.13184H47.35C49.648 5.13184 51.6305 5.5288 53.2998 6.32494C54.969 7.12108 56.2512 8.25209 57.1484 9.71797C58.0457 11.1861 58.4955 12.9314 58.4955 14.9605C58.4955 16.5839 58.0614 18.0896 57.1977 19.4779C56.3317 20.8662 54.9534 21.9994 53.0648 22.8709V19.9214C54.7967 20.5779 56.1661 21.3895 57.1731 22.3564C58.18 23.3233 58.8893 24.4011 59.2988 25.5854C59.7083 26.7718 59.9119 28.0203 59.9119 29.3288C59.9119 32.6686 58.802 35.281 56.5823 37.1682C54.3626 39.0554 51.2859 40.0002 47.35 40.0002H32.4744ZM38.9455 18.6574H47.6811C49.0036 18.6574 50.0575 18.2759 50.8451 17.5108C51.6327 16.7457 52.0266 15.7567 52.0266 14.5392C52.0266 13.3217 51.6327 12.3548 50.8451 11.6385C50.0575 10.9199 49.0036 10.5629 47.6811 10.5629H38.9455V18.6574ZM38.9455 34.3828H48.0123C49.6816 34.3828 51.0107 33.9238 52.002 33.0012C52.9932 32.0809 53.49 30.8567 53.49 29.3266C53.49 27.7986 52.9932 26.5656 52.002 25.6297C51.0107 24.6939 49.6793 24.2259 48.0123 24.2259H38.9455V34.3828Z" fill="#A3A3A3"/>
<path d="M66.965 7.82178H62.1564V22.19H66.965V7.82178Z" fill="#009FB7"/>
<path d="M59.6077 4.72584L67.0589 0V5.20486L59.6077 9.70893V4.72584Z" fill="#009FB7"/>
</svg>
