<svg width="34" height="38" viewBox="0 0 34 38" fill="none" xmlns="http://www.w3.org/2000/svg">
<path d="M16.8086 0C16.9885 0 17.2756 0.0499727 17.5752 0.111328C17.9054 0.178951 18.3356 0.279457 18.8457 0.413086C19.8665 0.680495 21.2229 1.08409 22.7656 1.63477C25.8458 2.73426 29.7021 4.4293 33.1211 6.80664L33.1309 6.81348C33.44 7.03578 33.6172 7.39395 33.6172 7.7666V7.76953C33.574 19.2039 29.8513 26.6557 25.9072 31.2568C23.9403 33.5514 21.9255 35.129 20.2998 36.1367C19.4874 36.6403 18.7673 37.0049 18.1934 37.2461C17.9069 37.3665 17.6499 37.4588 17.4316 37.5225C17.2311 37.5809 17.0074 37.6318 16.8086 37.6318C16.6097 37.6318 16.3861 37.5809 16.1855 37.5225C15.9673 37.4588 15.7103 37.3665 15.4238 37.2461C14.8499 37.0049 14.1297 36.6402 13.3174 36.1367C11.6917 35.129 9.67692 33.5513 7.70996 31.2568C3.76582 26.6557 0.0431592 19.2041 0 7.76953V7.7666C0 7.39393 0.177239 7.03577 0.486328 6.81348L0.496094 6.80664C3.91505 4.42932 7.77138 2.73427 10.8516 1.63477C12.3943 1.08408 13.7506 0.680504 14.7715 0.413086C15.2816 0.279454 15.7118 0.178953 16.042 0.111328C16.3416 0.0499698 16.6287 4.5685e-06 16.8086 0ZM16.6982 1.51465C16.6106 1.52813 16.4921 1.55048 16.3428 1.58105C16.0449 1.64207 15.6416 1.73583 15.1514 1.86426C14.1715 2.12096 12.8564 2.51206 11.3555 3.04785C8.39351 4.10517 4.73787 5.71361 1.50195 7.93555C1.58008 18.9206 5.15861 25.9756 8.84863 30.2803C10.7082 32.4496 12.6034 33.9284 14.1084 34.8613C14.8613 35.3281 15.5119 35.6557 16.0059 35.8633C16.2531 35.9671 16.4547 36.0381 16.6055 36.082C16.774 36.1312 16.8302 36.1318 16.8086 36.1318C16.7873 36.1318 16.8436 36.1311 17.0117 36.082C17.1626 36.038 17.3649 35.9673 17.6123 35.8633C18.1062 35.6557 18.7569 35.3281 19.5098 34.8613C21.0146 33.9284 22.9092 32.4493 24.7686 30.2803C28.4585 25.9756 32.0361 18.9204 32.1143 7.93555C28.8785 5.71381 25.2235 4.10508 22.2617 3.04785C20.7607 2.51206 19.4457 2.12095 18.4658 1.86426C17.9755 1.73583 17.5723 1.64207 17.2744 1.58105C17.1251 1.55049 17.0065 1.52813 16.9189 1.51465C16.8192 1.49931 16.7923 1.5 16.8086 1.5C16.825 1.5 16.7981 1.49929 16.6982 1.51465Z" fill="#262626"/>
<path d="M29.4957 10.0862C29.4286 27.8768 17.9295 33.0894 16.8085 33.0894C15.6875 33.0894 4.18809 27.8771 4.12109 10.0862C4.12109 9.97844 4.17254 9.87684 4.25867 9.81489C9.54538 6.13879 16.2351 4.54297 16.8084 4.54297C17.3817 4.54297 24.0714 6.13872 29.3581 9.81489C29.4443 9.87684 29.4957 9.97844 29.4957 10.0862Z" fill="#262626"/>
<path d="M25.0098 13.2827L16.0264 24.769L9.85059 19.8276L10.7881 18.6567L15.7793 22.6489L23.8281 12.3589L25.0098 13.2827Z" fill="white"/>
</svg>
