<svg width="64" height="64" viewBox="0 0 64 64" fill="none" xmlns="http://www.w3.org/2000/svg">
<circle cx="31.9996" cy="31.9995" r="25.479" fill="#262626"/>
<path d="M46.7955 55.3171C46.7955 47.3531 40.34 40.8964 32.3761 40.8961C24.4119 40.8961 17.9551 47.3529 17.9551 55.3171C17.9549 56.0218 17.3836 56.5932 16.6789 56.5932C15.9743 56.5932 15.403 56.0218 15.4028 55.3171C15.4028 45.9434 23.0024 38.3438 32.3761 38.3438C41.7496 38.3442 49.3477 45.9436 49.3477 55.3171C49.3476 56.0218 48.7763 56.5932 48.0716 56.5932C47.3672 56.593 46.7957 56.0216 46.7955 55.3171ZM40.1026 25.0145C40.1026 20.7475 36.643 17.2883 32.3761 17.288C28.1089 17.288 24.6497 20.7473 24.6497 25.0145C24.6497 29.2816 28.1089 32.7409 32.3761 32.7409C36.643 32.7406 40.1026 29.2814 40.1026 25.0145ZM42.6548 25.0145C42.6548 30.691 38.0526 35.2928 32.3761 35.2931C26.6994 35.2931 22.0974 30.6912 22.0974 25.0145C22.0974 19.3377 26.6994 14.7358 32.3761 14.7358C38.0526 14.7361 42.6548 19.3379 42.6548 25.0145Z" fill="white"/>
<path d="M57.116 47.3823C57.4847 46.7816 58.27 46.5932 58.8706 46.9619C59.4709 47.3306 59.6593 48.1161 59.291 48.7166C56.0221 54.0422 51.2372 58.3373 45.5363 61.0025C41.4235 62.9251 36.8346 64 31.9992 64C25.8392 63.9999 20.0827 62.2565 15.1987 59.2378C14.5992 58.8673 14.4127 58.081 14.7833 57.4815C15.1539 56.8823 15.9402 56.6974 16.5396 57.0678C21.032 59.8444 26.3267 61.4477 31.9992 61.4478C36.4532 61.4478 40.6733 60.4588 44.4546 58.6912C49.7 56.239 54.1065 52.2852 57.116 47.3823ZM0 31.9992C0.000224447 31.2946 0.571473 30.7231 1.27611 30.7231C1.98075 30.7231 2.552 31.2946 2.55222 31.9992C2.55222 36.566 3.59055 40.8877 5.44341 44.742C5.74853 45.3771 5.48199 46.1399 4.8469 46.4452C4.21171 46.7505 3.44911 46.4822 3.14375 45.847C1.12863 41.6551 0 36.957 0 31.9992ZM61.4478 31.9992C61.4477 26.3203 59.8402 21.0203 57.0578 16.5247C56.6872 15.9255 56.8725 15.1392 57.4716 14.7683C58.0708 14.3974 58.857 14.5828 59.2279 15.1821C62.2528 20.0696 63.9999 25.8323 64 31.9992C64 32.7037 63.4283 33.2748 62.7239 33.2753C62.0191 33.2753 61.4478 32.7039 61.4478 31.9992ZM31.9992 0C37.9301 0 43.4885 1.61526 48.253 4.42984C48.8594 4.78842 49.06 5.57119 48.7016 6.17784C48.343 6.78382 47.5617 6.98444 46.9553 6.62648C42.5731 4.03778 37.461 2.55222 31.9992 2.55222C26.4331 2.5523 21.2312 4.09502 16.7938 6.77602C16.1906 7.1405 15.4053 6.94722 15.0408 6.344C14.677 5.74107 14.8703 4.9572 15.4729 4.59267C20.2974 1.67758 25.9547 7.68398e-05 31.9992 0Z" fill="#262626"/>
</svg>
