<svg width="18" height="13" viewBox="0 0 18 13" fill="none" xmlns="http://www.w3.org/2000/svg">
<path fill-rule="evenodd" clip-rule="evenodd" d="M3.28306 2.75241C3.56474 2.68434 3.85267 2.65007 4.14148 2.65024C6.42866 2.65024 8.28224 4.76856 8.28224 7.38058C8.28224 9.99338 6.42866 12.1117 4.14148 12.1117C1.85431 12.1117 0 9.99416 0 7.38058C0 7.30414 0.00146239 7.22693 0.00511836 7.15049H0C0 3.2079 2.80779 0 6.25902 0V1.58796C5.13956 1.58796 4.10712 2.02317 3.28306 2.75241ZM12.5502 2.75241C12.8266 2.68533 13.1132 2.65024 13.4072 2.65024C15.6944 2.65024 17.5487 4.76856 17.5487 7.38058C17.5487 9.99338 15.6944 12.1117 13.4072 12.1117C11.12 12.1117 9.26642 9.99416 9.26642 7.38058C9.26642 7.30414 9.26789 7.22693 9.27154 7.15049H9.26642C9.26642 3.2079 12.0742 0 15.5254 0V1.58796C14.4053 1.58796 13.3743 2.02317 12.5502 2.75241Z" fill="#009FB7"/>
</svg>
