<svg width="64" height="64" viewBox="0 0 64 64" fill="none" xmlns="http://www.w3.org/2000/svg">
<path d="M48.9473 16.4758C48.9473 16.4758 45.0273 17.6076 43.3164 19.3185C41.6054 21.0294 40.4737 24.9494 40.4737 24.9494C40.4737 24.9494 39.3419 21.0294 37.631 19.3185C35.9201 17.6076 32.0001 16.4758 32.0001 16.4758C32.0001 16.4758 35.9201 15.3441 37.631 13.6332C39.3419 11.9222 40.4737 8.00224 40.4737 8.00224C40.4737 8.00224 41.6054 11.9222 43.3164 13.6332C45.0273 15.3441 48.9473 16.4758 48.9473 16.4758Z" stroke="#009FB7" stroke-width="2" stroke-linecap="round" stroke-linejoin="round"/>
<path d="M48.9473 16.4758C48.9473 16.4758 45.0273 17.6076 43.3164 19.3185C41.6054 21.0294 40.4737 24.9494 40.4737 24.9494C40.4737 24.9494 39.3419 21.0294 37.631 19.3185C35.9201 17.6076 32.0001 16.4758 32.0001 16.4758C32.0001 16.4758 35.9201 15.3441 37.631 13.6332C39.3419 11.9222 40.4737 8.00224 40.4737 8.00224C40.4737 8.00224 41.6054 11.9222 43.3164 13.6332C45.0273 15.3441 48.9473 16.4758 48.9473 16.4758Z" stroke="#009FB7" stroke-width="2" stroke-linecap="round" stroke-linejoin="round"/>
<path d="M42.5747 43.694C42.5747 43.694 36.8828 45.3373 34.3985 47.8216C31.9142 50.3059 30.2709 55.9978 30.2709 55.9978C30.2709 55.9978 28.6276 50.3059 26.1433 47.8216C23.659 45.3373 17.9671 43.694 17.9671 43.694C17.9671 43.694 23.659 42.0507 26.1433 39.5663C28.6276 37.082 30.2709 31.3902 30.2709 31.3902C30.2709 31.3902 31.9142 37.082 34.3985 39.5663C36.8828 42.0507 42.5747 43.694 42.5747 43.694Z" stroke="#009FB7" stroke-width="2" stroke-linecap="round" stroke-linejoin="round"/>
<path d="M48.0976 20.7597C52.1631 23.3777 54.6745 26.982 54.6745 30.961C54.6745 35.5547 51.3273 39.6489 46.106 42.3026M15.6592 41.0032C11.7371 38.3992 9.32568 34.86 9.32568 30.961C9.32568 23.7834 17.4977 17.8251 28.2221 16.676" stroke="#009FB7" stroke-width="2" stroke-linecap="round" stroke-linejoin="round"/>
</svg>
