<svg width="64" height="64" viewBox="0 0 64 64" fill="none" xmlns="http://www.w3.org/2000/svg">
<path d="M20.4746 45.7015C20.4746 39.1799 25.7614 35.1732 32.2829 35.1732C38.8044 35.1732 44.0912 39.1799 44.0912 45.7015" stroke="#00A8C2" stroke-width="2" stroke-linecap="round" stroke-linejoin="round"/>
<path d="M39.0552 24.1853C39.0552 27.9257 36.0231 30.9578 32.2827 30.9578C28.5424 30.9578 25.5103 27.9257 25.5103 24.1853C25.5103 20.445 28.5424 17.4128 32.2827 17.4128C36.0231 17.4128 39.0552 20.445 39.0552 24.1853Z" stroke="#00A8C2" stroke-width="2" stroke-linecap="round" stroke-linejoin="round"/>
<path d="M55.1128 32C55.1128 27.5442 53.852 23.3829 51.6675 19.8534M8.88721 32C8.88721 35.5827 9.70235 38.9749 11.1573 42.0015M19.8653 51.6749C23.3922 53.8548 27.5492 55.1128 32 55.1128C35.4943 55.1128 38.8074 54.3374 41.7768 52.9493C45.8943 51.0244 49.3507 47.9214 51.7123 44.0739M20.0642 12.2036C23.5481 10.0986 27.6326 8.88721 32 8.88721C36.2853 8.88721 40.2983 10.0534 43.7387 12.0859" stroke="#00A8C2" stroke-width="2" stroke-linecap="round" stroke-linejoin="round"/>
</svg>
