<svg width="64" height="64" viewBox="0 0 64 64" fill="none" xmlns="http://www.w3.org/2000/svg">
<path d="M48.4733 24.7218C48.4733 34.2138 31.7736 52.5061 31.7736 52.5061C31.7736 52.5061 15.5264 34.2138 15.5264 24.7218C15.5264 15.2297 22.9018 7.53485 31.9999 7.53485C41.0979 7.53485 48.4733 15.2297 48.4733 24.7218Z" stroke="#00A8C2" stroke-width="2" stroke-linecap="round" stroke-linejoin="round"/>
<path d="M40.1688 23.6705C40.1688 28.1819 36.5116 31.8391 32.0002 31.8391C27.4888 31.8391 23.8315 28.1819 23.8315 23.6705C23.8315 19.1591 27.4888 15.5018 32.0002 15.5018C36.5116 15.5018 40.1688 19.1591 40.1688 23.6705Z" stroke="#00A8C2" stroke-width="2" stroke-linecap="round" stroke-linejoin="round"/>
<path d="M38.1504 52.2631C41.04 52.9726 42.9373 54.168 42.9373 55.5233C42.9373 57.7004 38.0407 59.4653 32.0004 59.4653C25.9601 59.4653 21.0635 57.7004 21.0635 55.5233C21.0635 54.3002 22.6087 53.2073 25.0339 52.4843" stroke="#00A8C2" stroke-width="2" stroke-linecap="round" stroke-linejoin="round"/>
</svg>
