<svg width="64" height="64" viewBox="0 0 64 64" fill="none" xmlns="http://www.w3.org/2000/svg">
<path d="M20.1308 33.1063L21.1294 33.0539L20.1308 33.1063ZM32.2886 20.1752L32.7287 21.0732L32.2886 20.1752ZM38.2036 47.1012L38.7221 46.2462L38.2036 47.1012ZM37.5662 45.6045C37.0776 45.347 36.4728 45.5343 36.2153 46.0229C35.9578 46.5115 36.1451 47.1163 36.6336 47.3738L37.0999 46.4892L37.5662 45.6045ZM20.1308 33.1063L19.1321 33.1587C19.3268 36.8682 21.1932 39.3396 23.7305 41.1651C26.2062 42.9463 29.4091 44.1713 32.3542 45.3954L32.738 44.472L33.1218 43.5486C30.0639 42.2776 27.1381 41.1529 24.8985 39.5416C22.7203 37.9745 21.2846 36.0106 21.1294 33.0539L20.1308 33.1063ZM43.8845 7.58649L42.8845 7.58648C42.8845 10.6045 41.6138 12.7806 39.6096 14.5823C37.5615 16.4237 34.7906 17.8354 31.8486 19.2773L32.2886 20.1752L32.7287 21.0732C35.6311 19.6508 38.6582 18.1271 40.9468 16.0696C43.2794 13.9726 44.8844 11.2864 44.8845 7.5865L43.8845 7.58649ZM32.2886 20.1752L31.8486 19.2773C28.7877 20.7774 25.5203 22.3176 23.0927 24.3957C20.6067 26.5239 18.9283 29.2762 19.1321 33.1587L20.1308 33.1063L21.1294 33.0539C20.9655 29.9319 22.261 27.7404 24.3933 25.9151C26.584 24.0397 29.5793 22.6167 32.7287 21.0732L32.2886 20.1752ZM38.2036 47.1012L37.685 47.9563C40.7134 49.7927 42.7907 52.1514 42.8848 56.1073L43.8845 56.0835L44.8842 56.0597C44.7685 51.1924 42.106 48.2982 38.7221 46.2462L38.2036 47.1012ZM37.0999 46.4892L36.6336 47.3738C37.0383 47.5871 37.4232 47.7975 37.685 47.9563L38.2036 47.1012L38.7221 46.2462C38.4061 46.0545 37.9768 45.8209 37.5662 45.6045L37.0999 46.4892Z" fill="#00A8C2"/>
<path d="M20.7734 28.4826H31.0613M20.6128 32.9317H29.8635M21.6966 38.0653H31.2101" stroke="#00A8C2" stroke-width="2"/>
<path d="M43.8698 33.4363L42.871 33.3866L43.8698 33.4363ZM28.5487 17.2538C29.0315 17.522 29.2054 18.1308 28.9372 18.6136C28.669 19.0964 28.0602 19.2703 27.5774 19.0021L28.063 18.1279L28.5487 17.2538ZM43.8698 33.4363L44.8685 33.486C44.6914 37.0482 43.0443 39.4786 40.7468 41.2963C38.5069 43.0685 35.6047 44.289 32.8917 45.4703C30.1138 46.68 27.5151 47.8552 25.575 49.5364C23.6896 51.1701 22.4323 53.2786 22.3611 56.436L21.3614 56.4135L20.3616 56.391C20.4469 52.609 22.0012 49.9867 24.2652 48.0249C26.4746 46.1105 29.3632 44.8254 32.0932 43.6366C34.8881 42.4196 37.5143 41.3036 39.5059 39.7279C41.44 38.1976 42.7277 36.2687 42.871 33.3866L43.8698 33.4363ZM32.1894 20.4225L32.6493 19.5346C35.5694 21.0471 38.7149 22.5963 41.0536 24.6862C43.4519 26.8293 45.0623 29.5903 44.8685 33.486L43.8698 33.4363L42.871 33.3866C43.0288 30.2144 41.7667 28.0056 39.7209 26.1775C37.6155 24.296 34.7449 22.8724 31.7295 21.3105L32.1894 20.4225ZM21.3614 7.9165L22.3614 7.91649C22.3614 11.8755 24.8481 15.1979 28.5487 17.2538L28.063 18.1279L27.5774 19.0021C23.4409 16.7041 20.3614 12.804 20.3614 7.91651L21.3614 7.9165Z" fill="#00A8C2"/>
</svg>
